<?xml version="1.0" standalone="no"?>
<!DOCTYPE svg PUBLIC "-//W3C//DTD SVG 20010904//EN"
 "http://www.w3.org/TR/2001/REC-SVG-20010904/DTD/svg10.dtd">
<svg version="1.0" xmlns="http://www.w3.org/2000/svg"
 width="700.000000pt" height="700.000000pt" viewBox="0 0 700.000000 700.000000"
 preserveAspectRatio="xMidYMid meet">
<metadata>
Created by potrace 1.14, written by Peter Selinger 2001-2017
</metadata>
<g transform="translate(0.000000,700.000000) scale(0.100000,-0.100000)"
fill="#000000" stroke="none">
<path d="M4675 6524 c-1121 -73 -1809 -560 -2132 -1509 -40 -118 -81 -274
-123 -475 -17 -80 -33 -155 -37 -167 l-5 -23 -252 0 -251 0 -128 -598 c-71
-328 -128 -603 -128 -609 1 -10 58 -13 251 -13 138 0 250 -4 250 -8 0 -4 -126
-606 -280 -1337 -154 -732 -283 -1342 -286 -1358 l-6 -27 928 2 928 3 281
1336 c155 735 285 1348 289 1362 l6 27 440 0 440 0 5 23 c16 65 255 1180 255
1188 0 5 -175 9 -440 9 -412 0 -440 1 -440 18 0 9 16 79 34 155 93 373 225
480 611 494 216 8 364 -21 527 -101 65 -32 67 -33 72 -12 47 190 305 1451 299
1457 -17 17 -180 79 -273 103 -163 43 -288 57 -540 60 -129 2 -262 2 -295 0z"/>
</g>
</svg>
