<svg width="1168" height="253" viewBox="0 0 1168 253" fill="none" xmlns="http://www.w3.org/2000/svg">
<g clip-path="url(#clip0)">
<path d="M188.282 86.716C181.374 86.716 175.831 84.788 171.653 80.932C167.476 76.9153 165.387 71.774 165.387 65.508C165.387 59.5633 166.994 54.0203 170.207 48.879C173.421 43.577 177.678 39.3997 182.98 36.347C188.282 33.2943 193.906 31.768 199.85 31.768C206.598 31.768 212.061 33.8567 216.238 38.034C220.576 42.0507 222.745 47.192 222.745 53.458C222.745 55.386 222.504 57.314 222.022 59.242C220.416 67.1147 216.319 73.702 209.731 79.004C203.305 84.1453 196.155 86.716 188.282 86.716ZM59.1062 132.988H44.1642L51.8762 97.32H66.5772L68.5052 88.403C72.3612 70.8903 80.7962 57.3943 93.8102 47.915C106.824 38.4357 122.65 33.696 141.287 33.696C151.731 33.696 160.085 35.383 166.351 38.757L157.193 81.896C152.534 79.1647 147.393 77.799 141.769 77.799C136.307 77.799 131.888 79.0843 128.514 81.655C125.14 84.2257 122.891 88.0817 121.766 93.223L120.802 97.32H213.346L188.764 213H134.539L151.409 132.988H113.331L96.4612 213H42.2362L59.1062 132.988ZM230.969 97.32H283.266L281.097 106.96C286.721 102.783 292.987 99.5693 299.895 97.32C306.965 94.91 314.034 93.705 321.103 93.705C334.278 93.705 344.159 97.1593 350.746 104.068C357.494 110.977 360.868 119.733 360.868 130.337C360.868 133.711 360.467 137.406 359.663 141.423L344.48 213H290.255L303.751 149.376C304.073 146.805 304.233 145.118 304.233 144.315C304.233 138.531 301.1 135.639 294.834 135.639C286.801 135.639 280.053 139.254 274.59 146.484L260.612 213H206.387L230.969 97.32ZM415.984 216.615C400.078 216.615 387.707 212.598 378.87 204.565C370.033 196.532 365.615 185.446 365.615 171.307C365.615 166.648 366.258 161.265 367.543 155.16C371.56 136.362 379.995 121.42 392.848 110.334C405.862 99.248 422.33 93.705 442.253 93.705C449.001 93.705 455.187 94.7493 460.81 96.838C466.433 98.766 470.932 101.337 474.306 104.55L489.248 34.901H543.473L505.636 213H453.339L455.267 203.36C450.126 207.377 444.02 210.59 436.951 213C429.882 215.41 422.893 216.615 415.984 216.615ZM439.843 174.681C444.02 174.681 448.037 173.717 451.893 171.789C455.91 169.861 459.203 167.21 461.774 163.836L465.389 146.484C464.264 143.11 462.176 140.459 459.123 138.531C456.07 136.603 452.455 135.639 448.278 135.639C441.851 135.639 436.469 137.326 432.131 140.7C427.793 144.074 424.901 148.974 423.455 155.401C422.973 157.811 422.732 160.06 422.732 162.149C422.732 166.487 424.017 169.7 426.588 171.789C429.319 173.717 433.738 174.681 439.843 174.681ZM574.846 216.615C559.583 216.615 547.372 212.438 538.214 204.083C529.217 195.728 524.718 184.482 524.718 170.343C524.718 165.202 525.281 160.141 526.405 155.16C530.422 136.523 538.937 121.661 551.951 110.575C565.126 99.3283 581.514 93.705 601.115 93.705C607.863 93.705 614.049 94.7493 619.672 96.838C625.296 98.766 629.794 101.337 633.168 104.55L634.855 97.32H689.08L664.498 213H612.201L614.129 203.36C608.988 207.377 602.883 210.59 595.813 213C588.744 215.41 581.755 216.615 574.846 216.615ZM598.705 174.681C602.883 174.681 606.899 173.717 610.755 171.789C614.772 169.861 618.066 167.21 620.636 163.836L624.251 146.484C623.127 143.11 621.038 140.459 617.985 138.531C614.933 136.603 611.318 135.639 607.14 135.639C600.714 135.639 595.331 137.326 590.993 140.7C586.655 144.074 583.763 148.974 582.317 155.401C581.835 157.811 581.594 159.98 581.594 161.908C581.594 166.246 582.96 169.459 585.691 171.548C588.423 173.637 592.761 174.681 598.705 174.681ZM831.498 86.716C824.589 86.716 819.046 84.788 814.869 80.932C810.692 76.9153 808.603 71.774 808.603 65.508C808.603 59.5633 810.21 54.0203 813.423 48.879C816.636 43.577 820.894 39.3997 826.196 36.347C831.498 33.2943 837.121 31.768 843.066 31.768C849.814 31.768 855.277 33.8567 859.454 38.034C863.792 42.0507 865.961 47.192 865.961 53.458C865.961 55.386 865.72 57.314 865.238 59.242C863.631 67.1147 859.534 73.702 852.947 79.004C846.52 84.1453 839.371 86.716 831.498 86.716ZM702.322 132.988H687.38L695.092 97.32H709.793L711.721 88.403C715.577 70.8903 724.012 57.3943 737.026 47.915C750.04 38.4357 765.866 33.696 784.503 33.696C794.946 33.696 803.301 35.383 809.567 38.757L800.409 81.896C795.75 79.1647 790.608 77.799 784.985 77.799C779.522 77.799 775.104 79.0843 771.73 81.655C768.356 84.2257 766.107 88.0817 764.982 93.223L764.018 97.32H856.562L831.98 213H777.755L794.625 132.988H756.547L739.677 213H685.452L702.322 132.988ZM887.44 34.901H941.665L903.828 213H849.603L887.44 34.901ZM945.261 97.32H995.148L992.979 106.96C1003.9 98.1233 1016.36 93.705 1030.33 93.705C1038.53 93.705 1044.87 94.8297 1049.37 97.079C1053.87 99.1677 1057.49 102.381 1060.22 106.719C1065.84 102.702 1072.11 99.5693 1079.02 97.32C1086.09 94.91 1093.07 93.705 1099.98 93.705C1112.68 93.705 1121.75 96.356 1127.22 101.658C1132.84 106.799 1135.65 114.27 1135.65 124.071C1135.65 129.373 1134.93 135.157 1133.48 141.423L1118.3 213H1066.48L1079.98 149.376C1080.46 146.966 1080.7 144.958 1080.7 143.351C1080.7 140.78 1080.06 138.852 1078.78 137.567C1077.49 136.282 1075.32 135.639 1072.27 135.639C1068.73 135.639 1065.52 136.442 1062.63 138.049L1046.72 213H994.907L1008.89 146.725C1009.21 144.476 1009.37 143.03 1009.37 142.387C1009.37 137.888 1006.88 135.639 1001.9 135.639C996.434 135.639 991.453 138.692 986.954 144.797L972.494 213H920.679L945.261 97.32Z" fill="white"/>
<path d="M171.653 80.932L154.672 98.5924L154.852 98.7654L155.035 98.9347L171.653 80.932ZM170.207 48.879L190.983 61.864L191.072 61.7213L191.16 61.5774L170.207 48.879ZM216.238 38.034L198.914 55.3581L199.247 55.6911L199.593 56.0111L216.238 38.034ZM222.022 59.242L198.254 53.2998L198.124 53.8188L198.017 54.343L222.022 59.242ZM209.731 79.004L225.036 98.1353L225.065 98.1126L225.093 98.0898L209.731 79.004ZM59.1062 132.988L83.0791 138.043L89.3105 108.488H59.1062V132.988ZM44.1642 132.988L20.2175 127.81L13.8007 157.488H44.1642V132.988ZM51.8762 97.32V72.82H32.1073L27.9295 92.1423L51.8762 97.32ZM66.5772 97.32V121.82H86.346L90.5238 102.498L66.5772 97.32ZM68.5052 88.403L44.5783 83.1347L44.5683 83.18L44.5585 83.2253L68.5052 88.403ZM93.8102 47.915L79.3855 28.1115L79.3854 28.1115L93.8102 47.915ZM166.351 38.757L190.317 43.8447L194.129 25.8883L177.967 17.1854L166.351 38.757ZM157.193 81.896L144.803 103.032L174.106 120.209L181.159 86.9837L157.193 81.896ZM128.514 81.655L143.362 101.143L143.362 101.143L128.514 81.655ZM121.766 93.223L145.615 98.8344L145.659 98.6468L145.7 98.4586L121.766 93.223ZM120.802 97.32L96.9535 91.7086L89.8685 121.82H120.802V97.32ZM213.346 97.32L237.311 102.413L243.6 72.82H213.346V97.32ZM188.764 213V237.5H208.605L212.729 218.093L188.764 213ZM134.539 213L110.566 207.945L104.335 237.5H134.539V213ZM151.409 132.988L175.382 138.043L181.614 108.488H151.409V132.988ZM113.331 132.988V108.488H93.4582L89.3582 127.933L113.331 132.988ZM96.4612 213V237.5H116.334L120.434 218.055L96.4612 213ZM42.2362 213L18.2632 207.945L12.0319 237.5H42.2362V213ZM188.282 62.216C187.094 62.216 186.763 62.0501 186.992 62.1298C187.107 62.1699 187.314 62.2554 187.571 62.408C187.829 62.5617 188.069 62.7425 188.271 62.9293L155.035 98.9347C164.669 107.828 176.611 111.216 188.282 111.216V62.216ZM188.634 63.2716C188.744 63.377 188.928 63.576 189.132 63.8739C189.337 64.1743 189.515 64.506 189.652 64.8422C189.942 65.5546 189.887 65.8861 189.887 65.508H140.887C140.887 77.8369 145.274 89.5556 154.672 98.5924L188.634 63.2716ZM189.887 65.508C189.887 64.2506 190.152 63.1933 190.983 61.864L149.431 35.894C143.835 44.8474 140.887 54.876 140.887 65.508H189.887ZM191.16 61.5774C192.26 59.7614 193.535 58.5406 195.205 57.5792L170.756 15.1147C161.821 20.2588 154.581 27.3926 149.255 36.1806L191.16 61.5774ZM195.205 57.5792C196.902 56.6022 198.325 56.268 199.85 56.268V7.26799C189.486 7.26799 179.663 9.98643 170.756 15.1147L195.205 57.5792ZM199.85 56.268C200.687 56.268 200.715 56.3934 200.258 56.2188C200.04 56.1352 199.779 56.0082 199.512 55.8345C199.245 55.6612 199.044 55.4885 198.914 55.3581L233.562 20.7099C224.126 11.2733 212.092 7.26799 199.85 7.26799V56.268ZM199.593 56.0111C199.362 55.798 198.893 55.251 198.545 54.4257C198.211 53.6331 198.245 53.1945 198.245 53.458H247.245C247.245 40.8265 242.557 29.0134 232.884 20.0568L199.593 56.0111ZM198.245 53.458C198.245 53.3982 198.249 53.3473 198.254 53.3111C198.258 53.2753 198.261 53.2701 198.254 53.2998L245.791 65.1841C246.744 61.3728 247.245 57.4501 247.245 53.458H198.245ZM198.017 54.343C197.614 56.3154 196.763 57.9913 194.369 59.9182L225.093 98.0898C235.874 89.4127 243.217 77.914 246.027 64.141L198.017 54.343ZM194.426 59.8727C192.131 61.709 190.325 62.216 188.282 62.216V111.216C201.985 111.216 214.478 106.582 225.036 98.1353L194.426 59.8727ZM59.1062 108.488H44.1642V157.488H59.1062V108.488ZM68.1108 138.166L75.8228 102.498L27.9295 92.1423L20.2175 127.81L68.1108 138.166ZM51.8762 121.82H66.5772V72.82H51.8762V121.82ZM90.5238 102.498L92.4518 93.5806L44.5585 83.2253L42.6305 92.1423L90.5238 102.498ZM92.4321 93.6713C95.1589 81.2868 100.617 73.2672 108.235 67.7184L79.3854 28.1115C60.9752 41.5214 49.5635 60.4939 44.5783 83.1347L92.4321 93.6713ZM108.235 67.7184C116.423 61.7546 126.987 58.196 141.287 58.196V9.196C118.312 9.196 97.2257 15.1168 79.3855 28.1115L108.235 67.7184ZM141.287 58.196C149.435 58.196 153.321 59.5666 154.736 60.3285L177.967 17.1854C166.85 11.1994 154.026 9.196 141.287 9.196V58.196ZM142.385 33.6693L133.227 76.8083L181.159 86.9837L190.317 43.8447L142.385 33.6693ZM169.583 60.7599C161.008 55.733 151.561 53.299 141.769 53.299V102.299C143.224 102.299 144.06 102.596 144.803 103.032L169.583 60.7599ZM141.769 53.299C132.497 53.299 122.398 55.5143 113.666 62.1669L143.362 101.143C142.456 101.834 141.64 102.16 141.202 102.288C140.818 102.4 140.934 102.299 141.769 102.299V53.299ZM113.666 62.1669C104.635 69.0477 99.8897 78.5813 97.8321 87.9874L145.7 98.4586C145.811 97.9525 145.831 98.1828 145.459 98.8198C145.053 99.5158 144.36 100.383 143.362 101.143L113.666 62.1669ZM97.9175 87.6116L96.9535 91.7086L144.651 102.931L145.615 98.8344L97.9175 87.6116ZM120.802 121.82H213.346V72.82H120.802V121.82ZM189.381 92.2275L164.799 207.907L212.729 218.093L237.311 102.413L189.381 92.2275ZM188.764 188.5H134.539V237.5H188.764V188.5ZM158.512 218.055L175.382 138.043L127.436 127.933L110.566 207.945L158.512 218.055ZM151.409 108.488H113.331V157.488H151.409V108.488ZM89.3582 127.933L72.4883 207.945L120.434 218.055L137.304 138.043L89.3582 127.933ZM96.4612 188.5H42.2362V237.5H96.4612V188.5ZM66.2091 218.055L83.0791 138.043L35.1332 127.933L18.2632 207.945L66.2091 218.055ZM230.969 97.32V72.82H211.129L207.004 92.2275L230.969 97.32ZM283.266 97.32L307.169 102.698L313.891 72.82H283.266V97.32ZM281.097 106.96L257.195 101.582L242.7 166.004L295.707 126.627L281.097 106.96ZM299.895 97.32L307.48 120.616L307.641 120.564L307.801 120.509L299.895 97.32ZM350.746 104.068L333.015 120.975L333.117 121.082L333.22 121.187L350.746 104.068ZM359.663 141.423L383.63 146.507L383.66 146.368L383.688 146.228L359.663 141.423ZM344.48 213V237.5H364.328L368.447 218.084L344.48 213ZM290.255 213L266.289 207.916L260.013 237.5H290.255V213ZM303.751 149.376L327.718 154.46L327.933 153.445L328.062 152.415L303.751 149.376ZM274.59 146.484L255.043 131.715L251.74 136.085L250.614 141.445L274.59 146.484ZM260.612 213V237.5H280.499L284.589 218.038L260.612 213ZM206.387 213L182.422 207.907L176.134 237.5H206.387V213ZM230.969 121.82H283.266V72.82H230.969V121.82ZM259.364 91.9419L257.195 101.582L305 112.338L307.169 102.698L259.364 91.9419ZM295.707 126.627C299.122 124.09 302.999 122.075 307.48 120.616L292.31 74.0236C282.974 77.0635 274.319 81.475 266.487 87.2928L295.707 126.627ZM307.801 120.509C312.47 118.918 316.872 118.205 321.103 118.205V69.205C311.196 69.205 301.46 70.9021 291.99 74.1305L307.801 120.509ZM321.103 118.205C330.196 118.205 332.591 120.53 333.015 120.975L368.478 87.1611C355.727 73.7884 338.36 69.205 321.103 69.205V118.205ZM333.22 121.187C335.039 123.05 336.368 125.444 336.368 130.337H385.368C385.368 114.022 379.95 98.9034 368.273 86.9489L333.22 121.187ZM336.368 130.337C336.368 131.799 336.191 133.86 335.639 136.618L383.688 146.228C384.743 140.952 385.368 135.623 385.368 130.337H336.368ZM335.697 136.339L320.514 207.916L368.447 218.084L383.63 146.507L335.697 136.339ZM344.48 188.5H290.255V237.5H344.48V188.5ZM314.222 218.084L327.718 154.46L279.785 144.292L266.289 207.916L314.222 218.084ZM328.062 152.415C328.341 150.181 328.733 146.924 328.733 144.315H279.733C279.733 144.022 279.74 143.807 279.745 143.698C279.749 143.581 279.754 143.514 279.754 143.506C279.754 143.498 279.747 143.605 279.723 143.86C279.674 144.375 279.585 145.18 279.441 146.337L328.062 152.415ZM328.733 144.315C328.733 137.12 326.694 127.367 318.501 119.805C310.68 112.585 301.279 111.139 294.834 111.139V160.139C294.656 160.139 289.954 160.139 285.266 155.811C280.206 151.141 279.733 145.726 279.733 144.315H328.733ZM294.834 111.139C278.061 111.139 264.457 119.254 255.043 131.715L294.138 161.253C295.122 159.951 295.586 159.803 295.318 159.947C295.2 160.01 295.037 160.075 294.871 160.115C294.71 160.155 294.678 160.139 294.834 160.139V111.139ZM250.614 141.445L236.636 207.962L284.589 218.038L298.567 151.522L250.614 141.445ZM260.612 188.5H206.387V237.5H260.612V188.5ZM230.352 218.093L254.934 102.413L207.004 92.2275L182.422 207.907L230.352 218.093ZM378.87 204.565L395.35 186.436L378.87 204.565ZM367.543 155.16L343.584 150.041L343.576 150.077L343.568 150.113L367.543 155.16ZM392.848 110.334L376.96 91.6835L376.903 91.7323L376.846 91.7814L392.848 110.334ZM460.81 96.838L452.279 119.805L452.57 119.913L452.864 120.014L460.81 96.838ZM474.306 104.55L457.409 122.291L489.085 152.459L498.261 109.689L474.306 104.55ZM489.248 34.901V10.401H469.446L465.293 29.7619L489.248 34.901ZM543.473 34.901L567.438 39.9924L573.725 10.401H543.473V34.901ZM505.636 213V237.5H525.478L529.601 218.091L505.636 213ZM453.339 213L429.315 208.195L423.454 237.5H453.339V213ZM455.267 203.36L479.291 208.165L492.249 143.378L440.184 184.053L455.267 203.36ZM451.893 171.789L441.291 149.702L441.113 149.787L440.936 149.876L451.893 171.789ZM461.774 163.836L481.262 178.684L484.627 174.268L485.759 168.833L461.774 163.836ZM465.389 146.484L489.374 151.481L490.722 145.008L488.632 138.736L465.389 146.484ZM432.131 140.7L417.089 121.361L417.089 121.361L432.131 140.7ZM423.455 155.401L399.552 150.023L399.488 150.309L399.431 150.596L423.455 155.401ZM426.588 171.789L411.138 190.804L411.782 191.327L412.459 191.805L426.588 171.789ZM415.984 192.115C404.112 192.115 398.355 189.168 395.35 186.436L362.389 222.694C377.058 236.029 396.044 241.115 415.984 241.115V192.115ZM395.35 186.436C392.564 183.903 390.115 179.929 390.115 171.307H341.115C341.115 190.963 347.503 209.16 362.389 222.694L395.35 186.436ZM390.115 171.307C390.115 168.803 390.472 165.173 391.517 160.207L343.568 150.113C342.043 157.358 341.115 164.492 341.115 171.307H390.115ZM391.502 160.279C394.557 145.982 400.571 136.027 408.849 128.887L376.846 91.7814C359.419 106.813 348.562 126.742 343.584 150.041L391.502 160.279ZM408.735 128.984C416.601 122.284 427.137 118.205 442.253 118.205V69.205C417.523 69.205 395.123 76.2115 376.96 91.6835L408.735 128.984ZM442.253 118.205C446.45 118.205 449.705 118.849 452.279 119.805L469.34 73.8711C460.668 70.65 451.552 69.205 442.253 69.205V118.205ZM452.864 120.014C456.036 121.101 457.195 122.088 457.409 122.291L491.202 86.8086C484.668 80.5858 476.83 76.4307 468.756 73.6623L452.864 120.014ZM498.261 109.689L513.203 40.0401L465.293 29.7619L450.351 99.4109L498.261 109.689ZM489.248 59.401H543.473V10.401H489.248V59.401ZM519.508 29.8096L481.671 207.909L529.601 218.091L567.438 39.9924L519.508 29.8096ZM505.636 188.5H453.339V237.5H505.636V188.5ZM477.363 217.805L479.291 208.165L431.243 198.555L429.315 208.195L477.363 217.805ZM440.184 184.053C437.489 186.159 433.891 188.158 429.045 189.811L444.856 236.189C454.149 233.022 462.763 228.594 470.35 222.667L440.184 184.053ZM429.045 189.811C424.315 191.423 419.994 192.115 415.984 192.115V241.115C425.791 241.115 435.448 239.397 444.856 236.189L429.045 189.811ZM439.843 199.181C447.948 199.181 455.704 197.275 462.85 193.702L440.936 149.876C440.37 150.159 440.093 150.181 439.843 150.181V199.181ZM462.495 193.876C469.823 190.359 476.224 185.296 481.262 178.684L442.286 148.988C442.182 149.124 441.996 149.363 441.291 149.702L462.495 193.876ZM485.759 168.833L489.374 151.481L441.404 141.487L437.789 158.839L485.759 168.833ZM488.632 138.736C485.689 129.909 479.961 122.715 472.206 117.817L446.04 159.245C445.377 158.827 444.53 158.138 443.734 157.128C442.935 156.113 442.43 155.083 442.146 154.232L488.632 138.736ZM472.206 117.817C464.654 113.047 456.344 111.139 448.278 111.139V160.139C448.48 160.139 448.285 160.161 447.809 160.035C447.311 159.902 446.683 159.652 446.04 159.245L472.206 117.817ZM448.278 111.139C437.364 111.139 426.43 114.096 417.089 121.361L447.172 160.039C447.093 160.101 446.996 160.164 446.895 160.217C446.795 160.269 446.738 160.286 446.749 160.283C446.764 160.278 447.21 160.139 448.278 160.139V111.139ZM417.089 121.361C407.422 128.88 401.987 139.202 399.552 150.023L447.357 160.779C447.607 159.671 447.845 159.295 447.808 159.358C447.79 159.389 447.724 159.493 447.598 159.637C447.471 159.783 447.324 159.921 447.172 160.039L417.089 121.361ZM399.431 150.596C398.686 154.319 398.232 158.194 398.232 162.149H447.232C447.232 161.927 447.26 161.303 447.479 160.206L399.431 150.596ZM398.232 162.149C398.232 171.406 401.173 182.707 411.138 190.804L442.037 152.774C444.137 154.48 445.609 156.628 446.444 158.713C447.211 160.632 447.232 161.962 447.232 162.149H398.232ZM412.459 191.805C421.533 198.21 432.306 199.181 439.843 199.181V150.181C438.951 150.181 438.284 150.145 437.815 150.102C437.342 150.059 437.144 150.015 437.173 150.021C437.197 150.026 437.552 150.104 438.14 150.342C438.731 150.581 439.648 151.019 440.717 151.773L412.459 191.805ZM538.214 204.083L521.543 222.036L521.622 222.11L521.702 222.183L538.214 204.083ZM526.405 155.16L550.303 160.556L550.33 160.439L550.355 160.322L526.405 155.16ZM551.951 110.575L567.839 129.225L567.848 129.217L567.858 129.209L551.951 110.575ZM619.672 96.838L611.142 119.805L611.433 119.913L611.726 120.014L619.672 96.838ZM633.168 104.55L616.272 122.291L647.293 151.836L657.027 110.117L633.168 104.55ZM634.855 97.32V72.82H615.414L610.996 91.7529L634.855 97.32ZM689.08 97.32L713.045 102.413L719.333 72.82H689.08V97.32ZM664.498 213V237.5H684.339L688.463 218.093L664.498 213ZM612.201 213L588.177 208.195L582.316 237.5H612.201V213ZM614.129 203.36L638.153 208.165L651.111 143.378L599.046 184.053L614.129 203.36ZM610.755 171.789L600.153 149.702L599.975 149.787L599.798 149.876L610.755 171.789ZM620.636 163.836L640.124 178.684L643.489 174.268L644.621 168.833L620.636 163.836ZM624.251 146.484L648.236 151.481L649.585 145.008L647.494 138.736L624.251 146.484ZM590.993 140.7L575.952 121.361L575.952 121.361L590.993 140.7ZM582.317 155.401L558.415 150.023L558.35 150.309L558.293 150.596L582.317 155.401ZM585.691 171.548L600.574 152.086L600.574 152.086L585.691 171.548ZM574.846 192.115C564.213 192.115 558.386 189.322 554.726 185.983L521.702 222.183C536.359 235.554 554.953 241.115 574.846 241.115V192.115ZM554.885 186.13C551.654 183.129 549.218 178.801 549.218 170.343H500.218C500.218 190.162 506.78 208.328 521.543 222.036L554.885 186.13ZM549.218 170.343C549.218 167.005 549.581 163.754 550.303 160.556L502.507 149.764C500.98 156.528 500.218 163.399 500.218 170.343H549.218ZM550.355 160.322C553.376 146.305 559.391 136.421 567.839 129.225L536.064 91.9245C518.483 106.901 507.468 126.74 502.455 149.998L550.355 160.322ZM567.858 129.209C576.014 122.247 586.529 118.205 601.115 118.205V69.205C576.499 69.205 554.238 76.4098 536.044 91.9412L567.858 129.209ZM601.115 118.205C605.312 118.205 608.567 118.849 611.142 119.805L628.203 73.8711C619.531 70.65 610.414 69.205 601.115 69.205V118.205ZM611.726 120.014C614.899 121.101 616.058 122.088 616.272 122.291L650.065 86.8086C643.531 80.5858 635.693 76.4307 627.618 73.6623L611.726 120.014ZM657.027 110.117L658.714 102.887L610.996 91.7529L609.309 98.9829L657.027 110.117ZM634.855 121.82H689.08V72.82H634.855V121.82ZM665.115 92.2275L640.533 207.907L688.463 218.093L713.045 102.413L665.115 92.2275ZM664.498 188.5H612.201V237.5H664.498V188.5ZM636.225 217.805L638.153 208.165L590.105 198.555L588.177 208.195L636.225 217.805ZM599.046 184.053C596.351 186.159 592.754 188.158 587.908 189.811L603.719 236.189C613.011 233.022 621.625 228.594 629.212 222.667L599.046 184.053ZM587.908 189.811C583.177 191.423 578.856 192.115 574.846 192.115V241.115C584.654 241.115 594.31 239.397 603.719 236.189L587.908 189.811ZM598.705 199.181C606.81 199.181 614.567 197.275 621.712 193.702L599.798 149.876C599.232 150.159 598.955 150.181 598.705 150.181V199.181ZM621.357 193.876C628.685 190.359 635.087 185.296 640.124 178.684L601.148 148.988C601.044 149.124 600.858 149.363 600.153 149.702L621.357 193.876ZM644.621 168.833L648.236 151.481L600.266 141.487L596.651 158.839L644.621 168.833ZM647.494 138.736C644.551 129.909 638.823 122.715 631.068 117.817L604.902 159.245C604.239 158.827 603.393 158.138 602.597 157.128C601.798 156.113 601.292 155.083 601.008 154.232L647.494 138.736ZM631.068 117.817C623.516 113.047 615.207 111.139 607.14 111.139V160.139C607.342 160.139 607.147 160.161 606.672 160.035C606.173 159.902 605.545 159.652 604.902 159.245L631.068 117.817ZM607.14 111.139C596.226 111.139 585.292 114.096 575.952 121.361L606.035 160.039C605.955 160.101 605.858 160.164 605.757 160.217C605.657 160.269 605.6 160.286 605.611 160.283C605.627 160.278 606.072 160.139 607.14 160.139V111.139ZM575.952 121.361C566.285 128.88 560.849 139.202 558.415 150.023L606.22 160.779C606.469 159.671 606.707 159.295 606.67 159.358C606.652 159.389 606.586 159.493 606.46 159.637C606.333 159.783 606.186 159.921 606.035 160.039L575.952 121.361ZM558.293 150.596C557.576 154.18 557.094 157.998 557.094 161.908H606.094C606.094 161.962 606.094 161.442 606.341 160.206L558.293 150.596ZM557.094 161.908C557.094 171.677 560.459 183.095 570.809 191.01L600.574 152.086C602.629 153.658 604.218 155.758 605.167 157.989C606.043 160.052 606.094 161.558 606.094 161.908H557.094ZM570.809 191.01C579.952 198.001 590.901 199.181 598.705 199.181V150.181C597.069 150.181 596.516 150.027 596.728 150.078C596.932 150.128 598.548 150.537 600.574 152.086L570.809 191.01ZM814.869 80.932L797.888 98.5924L798.068 98.7654L798.251 98.9347L814.869 80.932ZM813.423 48.879L834.199 61.864L834.288 61.7213L834.375 61.5774L813.423 48.879ZM859.454 38.034L842.13 55.3581L842.463 55.6911L842.809 56.0111L859.454 38.034ZM865.238 59.242L841.47 53.2998L841.34 53.8188L841.233 54.343L865.238 59.242ZM852.947 79.004L868.252 98.1353L868.28 98.1126L868.309 98.0898L852.947 79.004ZM702.322 132.988L726.295 138.043L732.526 108.488H702.322V132.988ZM687.38 132.988L663.433 127.81L657.017 157.488H687.38V132.988ZM695.092 97.32V72.82H675.323L671.145 92.1423L695.092 97.32ZM709.793 97.32V121.82H729.562L733.74 102.498L709.793 97.32ZM711.721 88.403L687.794 83.1347L687.784 83.18L687.774 83.2253L711.721 88.403ZM737.026 47.915L722.601 28.1115L722.601 28.1115L737.026 47.915ZM809.567 38.757L833.533 43.8447L837.345 25.8883L821.182 17.1854L809.567 38.757ZM800.409 81.896L788.019 103.032L817.321 120.209L824.375 86.9837L800.409 81.896ZM771.73 81.655L786.578 101.143L786.578 101.143L771.73 81.655ZM764.982 93.223L788.831 98.8344L788.875 98.6468L788.916 98.4586L764.982 93.223ZM764.018 97.32L740.169 91.7086L733.084 121.82H764.018V97.32ZM856.562 97.32L880.527 102.413L886.815 72.82H856.562V97.32ZM831.98 213V237.5H851.821L855.945 218.093L831.98 213ZM777.755 213L753.782 207.945L747.551 237.5H777.755V213ZM794.625 132.988L818.598 138.043L824.829 108.488H794.625V132.988ZM756.547 132.988V108.488H736.674L732.574 127.933L756.547 132.988ZM739.677 213V237.5H759.55L763.65 218.055L739.677 213ZM685.452 213L661.479 207.945L655.248 237.5H685.452V213ZM831.498 62.216C830.31 62.216 829.979 62.0501 830.208 62.1298C830.323 62.1699 830.53 62.2554 830.786 62.408C831.045 62.5617 831.285 62.7425 831.487 62.9293L798.251 98.9347C807.885 107.828 819.827 111.216 831.498 111.216V62.216ZM831.85 63.2716C831.96 63.377 832.144 63.576 832.348 63.8739C832.553 64.1743 832.731 64.506 832.868 64.8422C833.157 65.5546 833.103 65.8861 833.103 65.508H784.103C784.103 77.8369 788.49 89.5556 797.888 98.5924L831.85 63.2716ZM833.103 65.508C833.103 64.2506 833.368 63.1933 834.199 61.864L792.647 35.894C787.051 44.8474 784.103 54.876 784.103 65.508H833.103ZM834.375 61.5774C835.476 59.7614 836.751 58.5406 838.421 57.5792L813.971 15.1147C805.037 20.2588 797.797 27.3926 792.471 36.1806L834.375 61.5774ZM838.421 57.5792C840.118 56.6022 841.541 56.268 843.066 56.268V7.26799C832.702 7.26799 822.878 9.98643 813.971 15.1147L838.421 57.5792ZM843.066 56.268C843.903 56.268 843.931 56.3934 843.474 56.2188C843.256 56.1352 842.995 56.0082 842.728 55.8345C842.461 55.6612 842.26 55.4885 842.13 55.3581L876.778 20.7099C867.342 11.2733 855.307 7.26799 843.066 7.26799V56.268ZM842.809 56.0111C842.578 55.798 842.109 55.251 841.761 54.4257C841.426 53.6331 841.461 53.1945 841.461 53.458H890.461C890.461 40.8265 885.773 29.0134 876.099 20.0568L842.809 56.0111ZM841.461 53.458C841.461 53.3982 841.465 53.3473 841.469 53.3111C841.474 53.2753 841.477 53.2701 841.47 53.2998L889.006 65.1841C889.959 61.3728 890.461 57.4501 890.461 53.458H841.461ZM841.233 54.343C840.83 56.3154 839.979 57.9913 837.585 59.9182L868.309 98.0898C879.089 89.4127 886.432 77.914 889.243 64.141L841.233 54.343ZM837.642 59.8727C835.347 61.709 833.541 62.216 831.498 62.216V111.216C845.201 111.216 857.694 106.582 868.252 98.1353L837.642 59.8727ZM702.322 108.488H687.38V157.488H702.322V108.488ZM711.327 138.166L719.039 102.498L671.145 92.1423L663.433 127.81L711.327 138.166ZM695.092 121.82H709.793V72.82H695.092V121.82ZM733.74 102.498L735.668 93.5806L687.774 83.2253L685.846 92.1423L733.74 102.498ZM735.648 93.6713C738.375 81.2868 743.833 73.2672 751.451 67.7184L722.601 28.1115C704.191 41.5214 692.779 60.4939 687.794 83.1347L735.648 93.6713ZM751.451 67.7184C759.638 61.7546 770.203 58.196 784.503 58.196V9.196C761.528 9.196 740.442 15.1168 722.601 28.1115L751.451 67.7184ZM784.503 58.196C792.651 58.196 796.537 59.5666 797.952 60.3285L821.182 17.1854C810.065 11.1994 797.241 9.196 784.503 9.196V58.196ZM785.601 33.6693L776.443 76.8083L824.375 86.9837L833.533 43.8447L785.601 33.6693ZM812.799 60.7599C804.224 55.733 794.777 53.299 784.985 53.299V102.299C786.44 102.299 787.275 102.596 788.019 103.032L812.799 60.7599ZM784.985 53.299C775.713 53.299 765.614 55.5143 756.882 62.1669L786.578 101.143C785.672 101.834 784.856 102.16 784.418 102.288C784.034 102.4 784.15 102.299 784.985 102.299V53.299ZM756.882 62.1669C747.851 69.0477 743.106 78.5813 741.048 87.9874L788.916 98.4586C789.027 97.9525 789.047 98.1828 788.675 98.8198C788.269 99.5158 787.576 100.383 786.578 101.143L756.882 62.1669ZM741.133 87.6116L740.169 91.7086L787.867 102.931L788.831 98.8344L741.133 87.6116ZM764.018 121.82H856.562V72.82H764.018V121.82ZM832.597 92.2275L808.015 207.907L855.945 218.093L880.527 102.413L832.597 92.2275ZM831.98 188.5H777.755V237.5H831.98V188.5ZM801.728 218.055L818.598 138.043L770.652 127.933L753.782 207.945L801.728 218.055ZM794.625 108.488H756.547V157.488H794.625V108.488ZM732.574 127.933L715.704 207.945L763.65 218.055L780.52 138.043L732.574 127.933ZM739.677 188.5H685.452V237.5H739.677V188.5ZM709.425 218.055L726.295 138.043L678.349 127.933L661.479 207.945L709.425 218.055ZM887.44 34.901V10.401H867.598L863.475 29.8096L887.44 34.901ZM941.665 34.901L965.63 39.9924L971.917 10.401H941.665V34.901ZM903.828 213V237.5H923.67L927.793 218.091L903.828 213ZM849.603 213L825.638 207.909L819.351 237.5H849.603V213ZM887.44 59.401H941.665V10.401H887.44V59.401ZM917.7 29.8096L879.863 207.909L927.793 218.091L965.63 39.9924L917.7 29.8096ZM903.828 188.5H849.603V237.5H903.828V188.5ZM873.568 218.091L911.405 39.9924L863.475 29.8096L825.638 207.909L873.568 218.091ZM945.261 97.32V72.82H925.42L921.296 92.2275L945.261 97.32ZM995.148 97.32L1019.05 102.698L1025.77 72.82H995.148V97.32ZM992.979 106.96L969.077 101.582L953.613 170.311L1008.39 126.009L992.979 106.96ZM1049.37 97.079L1038.42 118.992L1038.73 119.151L1039.06 119.301L1049.37 97.079ZM1060.22 106.719L1039.49 119.773L1053.32 141.752L1074.46 126.655L1060.22 106.719ZM1079.02 97.32L1086.6 120.616L1086.76 120.564L1086.92 120.509L1079.02 97.32ZM1127.22 101.658L1110.15 119.239L1110.41 119.493L1110.68 119.74L1127.22 101.658ZM1133.48 141.423L1109.61 135.914L1109.56 136.126L1109.52 136.339L1133.48 141.423ZM1118.3 213V237.5H1138.15L1142.27 218.084L1118.3 213ZM1066.48 213L1042.52 207.916L1036.24 237.5H1066.48V213ZM1079.98 149.376L1103.95 154.46L1103.98 154.321L1104 154.181L1079.98 149.376ZM1078.78 137.567L1096.1 120.243L1096.1 120.243L1078.78 137.567ZM1062.63 138.049L1050.73 116.632L1040.98 122.05L1038.66 132.963L1062.63 138.049ZM1046.72 213V237.5H1066.57L1070.69 218.086L1046.72 213ZM994.907 213L970.935 207.944L964.701 237.5H994.907V213ZM1008.89 146.725L1032.86 151.781L1033.02 150.99L1033.14 150.19L1008.89 146.725ZM986.954 144.797L967.23 130.264L964.086 134.531L962.987 139.716L986.954 144.797ZM972.494 213V237.5H992.345L996.462 218.081L972.494 213ZM920.679 213L896.714 207.907L890.426 237.5H920.679V213ZM945.261 121.82H995.148V72.82H945.261V121.82ZM971.246 91.9419L969.077 101.582L1016.88 112.338L1019.05 102.698L971.246 91.9419ZM1008.39 126.009C1014.98 120.679 1022 118.205 1030.33 118.205V69.205C1010.72 69.205 992.833 75.5677 977.572 87.911L1008.39 126.009ZM1030.33 118.205C1033.36 118.205 1035.52 118.417 1036.96 118.673C1038.43 118.933 1038.77 119.17 1038.42 118.992L1060.33 75.1655C1050.94 70.4698 1040.21 69.205 1030.33 69.205V118.205ZM1039.06 119.301C1039.14 119.339 1039.17 119.362 1039.18 119.366C1039.18 119.368 1039.18 119.369 1039.18 119.368C1039.18 119.367 1039.18 119.366 1039.18 119.367C1039.18 119.368 1039.19 119.373 1039.2 119.383C1039.21 119.393 1039.22 119.411 1039.25 119.439C1039.29 119.493 1039.38 119.598 1039.49 119.773L1080.95 93.6651C1075.79 85.4729 1068.62 79.0036 1059.69 74.8573L1039.06 119.301ZM1074.46 126.655C1077.95 124.165 1081.95 122.132 1086.6 120.616L1071.43 74.0236C1062.27 77.0069 1053.74 81.2398 1045.98 86.7825L1074.46 126.655ZM1086.92 120.509C1091.65 118.897 1095.97 118.205 1099.98 118.205V69.205C1090.18 69.205 1080.52 70.9231 1071.11 74.1305L1086.92 120.509ZM1099.98 118.205C1104.75 118.205 1107.75 118.716 1109.44 119.211C1111.06 119.684 1110.9 119.962 1110.15 119.239L1144.28 84.0773C1132.01 72.1691 1115.05 69.205 1099.98 69.205V118.205ZM1110.68 119.74C1110.51 119.582 1110.5 119.444 1110.61 119.747C1110.77 120.175 1111.15 121.469 1111.15 124.071H1160.15C1160.15 109.482 1155.81 94.6032 1143.75 83.5763L1110.68 119.74ZM1111.15 124.071C1111.15 127.176 1110.72 131.087 1109.61 135.914L1157.35 146.932C1159.13 139.227 1160.15 131.57 1160.15 124.071H1111.15ZM1109.52 136.339L1094.33 207.916L1142.27 218.084L1157.45 146.507L1109.52 136.339ZM1118.3 188.5H1066.48V237.5H1118.3V188.5ZM1090.45 218.084L1103.95 154.46L1056.01 144.292L1042.52 207.916L1090.45 218.084ZM1104 154.181C1104.66 150.926 1105.2 147.18 1105.2 143.351H1056.2C1056.2 142.967 1056.23 142.872 1056.2 143.143C1056.17 143.398 1056.1 143.863 1055.96 144.571L1104 154.181ZM1105.2 143.351C1105.2 137.004 1103.6 127.743 1096.1 120.243L1061.45 154.891C1056.52 149.961 1056.2 144.557 1056.2 143.351H1105.2ZM1096.1 120.243C1087.94 112.082 1077.66 111.139 1072.27 111.139V160.139C1072.2 160.139 1071.03 160.147 1069.22 159.612C1067.34 159.052 1064.32 157.758 1061.45 154.891L1096.1 120.243ZM1072.27 111.139C1064.86 111.139 1057.51 112.865 1050.73 116.632L1074.53 159.466C1074.1 159.705 1073.62 159.892 1073.15 160.01C1072.69 160.126 1072.37 160.139 1072.27 160.139V111.139ZM1038.66 132.963L1022.76 207.914L1070.69 218.086L1086.59 143.135L1038.66 132.963ZM1046.72 188.5H994.907V237.5H1046.72V188.5ZM1018.88 218.056L1032.86 151.781L984.913 141.669L970.935 207.944L1018.88 218.056ZM1033.14 150.19C1033.39 148.439 1033.87 145.126 1033.87 142.387H984.867C984.867 141.98 984.879 141.671 984.888 141.5C984.896 141.319 984.905 141.194 984.909 141.141C984.917 141.043 984.917 141.065 984.897 141.248C984.878 141.419 984.847 141.672 984.802 142.02C984.757 142.364 984.701 142.776 984.632 143.26L1033.14 150.19ZM1033.87 142.387C1033.87 135.681 1031.9 126.348 1023.92 119.144C1016.42 112.369 1007.58 111.139 1001.9 111.139V160.139C1001.19 160.139 996.089 160.034 991.078 155.508C985.593 150.554 984.867 144.594 984.867 142.387H1033.87ZM1001.9 111.139C985.895 111.139 974.425 120.5 967.23 130.264L1006.68 159.33C1007.58 158.1 1007.74 158.279 1006.87 158.817C1006.4 159.105 1005.69 159.457 1004.76 159.727C1003.83 160.001 1002.85 160.139 1001.9 160.139V111.139ZM962.987 139.716L948.527 207.919L996.462 218.081L1010.92 149.878L962.987 139.716ZM972.494 188.5H920.679V237.5H972.494V188.5ZM944.644 218.093L969.226 102.413L921.296 92.2275L896.714 207.907L944.644 218.093Z" fill="white"/>
<path d="M188.282 86.716C181.374 86.716 175.831 84.788 171.653 80.932C167.476 76.9153 165.387 71.774 165.387 65.508C165.387 59.5633 166.994 54.0203 170.207 48.879C173.421 43.577 177.678 39.3997 182.98 36.347C188.282 33.2943 193.906 31.768 199.85 31.768C206.598 31.768 212.061 33.8567 216.238 38.034C220.576 42.0507 222.745 47.192 222.745 53.458C222.745 55.386 222.504 57.314 222.022 59.242C220.416 67.1147 216.319 73.702 209.731 79.004C203.305 84.1453 196.155 86.716 188.282 86.716ZM59.1062 132.988H44.1642L51.8762 97.32H66.5772L68.5052 88.403C72.3612 70.8903 80.7962 57.3943 93.8102 47.915C106.824 38.4357 122.65 33.696 141.287 33.696C151.731 33.696 160.085 35.383 166.351 38.757L157.193 81.896C152.534 79.1647 147.393 77.799 141.769 77.799C136.307 77.799 131.888 79.0843 128.514 81.655C125.14 84.2257 122.891 88.0817 121.766 93.223L120.802 97.32H213.346L188.764 213H134.539L151.409 132.988H113.331L96.4612 213H42.2362L59.1062 132.988ZM230.969 97.32H283.266L281.097 106.96C286.721 102.783 292.987 99.5693 299.895 97.32C306.965 94.91 314.034 93.705 321.103 93.705C334.278 93.705 344.159 97.1593 350.746 104.068C357.494 110.977 360.868 119.733 360.868 130.337C360.868 133.711 360.467 137.406 359.663 141.423L344.48 213H290.255L303.751 149.376C304.073 146.805 304.233 145.118 304.233 144.315C304.233 138.531 301.1 135.639 294.834 135.639C286.801 135.639 280.053 139.254 274.59 146.484L260.612 213H206.387L230.969 97.32ZM415.984 216.615C400.078 216.615 387.707 212.598 378.87 204.565C370.033 196.532 365.615 185.446 365.615 171.307C365.615 166.648 366.258 161.265 367.543 155.16C371.56 136.362 379.995 121.42 392.848 110.334C405.862 99.248 422.33 93.705 442.253 93.705C449.001 93.705 455.187 94.7493 460.81 96.838C466.433 98.766 470.932 101.337 474.306 104.55L489.248 34.901H543.473L505.636 213H453.339L455.267 203.36C450.126 207.377 444.02 210.59 436.951 213C429.882 215.41 422.893 216.615 415.984 216.615ZM439.843 174.681C444.02 174.681 448.037 173.717 451.893 171.789C455.91 169.861 459.203 167.21 461.774 163.836L465.389 146.484C464.264 143.11 462.176 140.459 459.123 138.531C456.07 136.603 452.455 135.639 448.278 135.639C441.851 135.639 436.469 137.326 432.131 140.7C427.793 144.074 424.901 148.974 423.455 155.401C422.973 157.811 422.732 160.06 422.732 162.149C422.732 166.487 424.017 169.7 426.588 171.789C429.319 173.717 433.738 174.681 439.843 174.681ZM574.846 216.615C559.583 216.615 547.372 212.438 538.214 204.083C529.217 195.728 524.718 184.482 524.718 170.343C524.718 165.202 525.281 160.141 526.405 155.16C530.422 136.523 538.937 121.661 551.951 110.575C565.126 99.3283 581.514 93.705 601.115 93.705C607.863 93.705 614.049 94.7493 619.672 96.838C625.296 98.766 629.794 101.337 633.168 104.55L634.855 97.32H689.08L664.498 213H612.201L614.129 203.36C608.988 207.377 602.883 210.59 595.813 213C588.744 215.41 581.755 216.615 574.846 216.615ZM598.705 174.681C602.883 174.681 606.899 173.717 610.755 171.789C614.772 169.861 618.066 167.21 620.636 163.836L624.251 146.484C623.127 143.11 621.038 140.459 617.985 138.531C614.933 136.603 611.318 135.639 607.14 135.639C600.714 135.639 595.331 137.326 590.993 140.7C586.655 144.074 583.763 148.974 582.317 155.401C581.835 157.811 581.594 159.98 581.594 161.908C581.594 166.246 582.96 169.459 585.691 171.548C588.423 173.637 592.761 174.681 598.705 174.681ZM831.498 86.716C824.589 86.716 819.046 84.788 814.869 80.932C810.692 76.9153 808.603 71.774 808.603 65.508C808.603 59.5633 810.21 54.0203 813.423 48.879C816.636 43.577 820.894 39.3997 826.196 36.347C831.498 33.2943 837.121 31.768 843.066 31.768C849.814 31.768 855.277 33.8567 859.454 38.034C863.792 42.0507 865.961 47.192 865.961 53.458C865.961 55.386 865.72 57.314 865.238 59.242C863.631 67.1147 859.534 73.702 852.947 79.004C846.52 84.1453 839.371 86.716 831.498 86.716ZM702.322 132.988H687.38L695.092 97.32H709.793L711.721 88.403C715.577 70.8903 724.012 57.3943 737.026 47.915C750.04 38.4357 765.866 33.696 784.503 33.696C794.946 33.696 803.301 35.383 809.567 38.757L800.409 81.896C795.75 79.1647 790.608 77.799 784.985 77.799C779.522 77.799 775.104 79.0843 771.73 81.655C768.356 84.2257 766.107 88.0817 764.982 93.223L764.018 97.32H856.562L831.98 213H777.755L794.625 132.988H756.547L739.677 213H685.452L702.322 132.988ZM887.44 34.901H941.665L903.828 213H849.603L887.44 34.901ZM945.261 97.32H995.148L992.979 106.96C1003.9 98.1233 1016.36 93.705 1030.33 93.705C1038.53 93.705 1044.87 94.8297 1049.37 97.079C1053.87 99.1677 1057.49 102.381 1060.22 106.719C1065.84 102.702 1072.11 99.5693 1079.02 97.32C1086.09 94.91 1093.07 93.705 1099.98 93.705C1112.68 93.705 1121.75 96.356 1127.22 101.658C1132.84 106.799 1135.65 114.27 1135.65 124.071C1135.65 129.373 1134.93 135.157 1133.48 141.423L1118.3 213H1066.48L1079.98 149.376C1080.46 146.966 1080.7 144.958 1080.7 143.351C1080.7 140.78 1080.06 138.852 1078.78 137.567C1077.49 136.282 1075.32 135.639 1072.27 135.639C1068.73 135.639 1065.52 136.442 1062.63 138.049L1046.72 213H994.907L1008.89 146.725C1009.21 144.476 1009.37 143.03 1009.37 142.387C1009.37 137.888 1006.88 135.639 1001.9 135.639C996.434 135.639 991.453 138.692 986.954 144.797L972.494 213H920.679L945.261 97.32Z" fill="black"/>
</g>
<defs>
<clipPath id="clip0">
<rect width="1168" height="253" fill="white"/>
</clipPath>
</defs>
</svg>
