<svg width="1280" height="640" viewBox="0 0 1280 640" fill="none" xmlns="http://www.w3.org/2000/svg">
<path d="M807.544 522.128H849.04C851.946 522.128 854.732 520.987 856.788 518.954C858.843 516.922 859.998 514.166 860 511.291C860 508.415 858.845 505.657 856.79 503.624C854.734 501.59 851.947 500.448 849.04 500.448H807.544C804.637 500.448 801.849 501.59 799.794 503.624C797.738 505.657 796.584 508.415 796.584 511.291V511.291C796.585 514.166 797.741 516.922 799.796 518.954C801.851 520.987 804.638 522.128 807.544 522.128V522.128ZM752.96 549.742H800.659C803.565 549.742 806.351 548.601 808.407 546.569C810.462 544.536 811.617 541.78 811.619 538.905V538.905C811.619 536.029 810.464 533.271 808.409 531.238C806.353 529.205 803.566 528.062 800.659 528.062H752.96C750.053 528.062 747.266 529.205 745.21 531.238C743.155 533.271 742 536.029 742 538.905V538.905C742.002 541.78 743.157 544.536 745.212 546.569C747.268 548.601 750.054 549.742 752.96 549.742V549.742ZM748.457 521.735H753.295V504.246H759.56V500H742.192V504.234H748.457V521.735ZM765.887 521.735H770.725V505.063H770.787L776.369 521.723H780.091L785.859 505.063H785.921V521.723H790.759V500H783.409L778.323 514.175H778.261L773.206 500H765.887V521.735ZM836.548 534.162C835.901 532.827 834.939 531.665 833.744 530.774C832.504 529.877 831.095 529.235 829.601 528.884C827.963 528.48 826.283 528.274 824.595 528.271H817.338V549.994H825.246C826.835 550.001 828.415 549.763 829.929 549.288C831.359 548.858 832.695 548.167 833.868 547.251C835.009 546.335 835.934 545.183 836.579 543.876C837.275 542.424 837.621 540.831 837.59 539.224C837.64 537.48 837.284 535.748 836.548 534.162V534.162ZM831.939 542.096C831.576 542.915 831.014 543.632 830.302 544.183C829.562 544.721 828.717 545.101 827.82 545.299C826.803 545.531 825.763 545.645 824.719 545.637H822.207V532.75H825.06C826.039 532.746 827.014 532.876 827.957 533.137C828.824 533.368 829.64 533.757 830.364 534.284C831.027 534.801 831.565 535.457 831.939 536.205C832.365 537.068 832.578 538.019 832.559 538.979C832.587 540.05 832.375 541.115 831.939 542.096V542.096ZM859.622 542.016C859.403 541.423 859.07 540.877 858.642 540.409C858.216 539.943 857.707 539.558 857.141 539.273C856.523 538.965 855.859 538.758 855.174 538.66V538.598C856.238 538.296 857.191 537.695 857.916 536.868C858.631 536.006 859.002 534.914 858.958 533.8C859.004 532.8 858.757 531.809 858.245 530.946C857.777 530.243 857.137 529.668 856.384 529.277C855.573 528.863 854.696 528.593 853.791 528.479C852.842 528.345 851.884 528.278 850.925 528.277H842.738V550H851.732C852.716 550.001 853.697 549.898 854.659 549.693C855.596 549.508 856.494 549.165 857.314 548.681C858.09 548.222 858.749 547.592 859.237 546.84C859.76 545.974 860.019 544.976 859.981 543.968C859.982 543.303 859.867 542.643 859.64 542.016H859.622ZM847.576 532.351H850.863C851.249 532.353 851.633 532.39 852.011 532.462C852.378 532.527 852.733 532.645 853.065 532.812C853.372 532.977 853.632 533.215 853.822 533.505C854.032 533.84 854.135 534.229 854.12 534.622C854.129 535.007 854.037 535.387 853.853 535.727C853.686 536.024 853.447 536.277 853.158 536.463C852.858 536.651 852.526 536.786 852.178 536.862C851.819 536.946 851.45 536.987 851.081 536.985H847.576V532.351ZM854.846 544.624C854.659 544.945 854.4 545.218 854.089 545.422C853.774 545.632 853.419 545.778 853.047 545.852C852.676 545.934 852.298 545.975 851.918 545.974H847.576V541.065H851.236C851.651 541.069 852.065 541.1 852.476 541.157C852.913 541.217 853.34 541.33 853.748 541.495C854.128 541.652 854.463 541.901 854.722 542.219C854.991 542.571 855.13 543.005 855.112 543.446C855.132 543.856 855.04 544.263 854.846 544.624V544.624Z" fill="url(#paint0_linear)"/>
<path d="M441.075 515.288C443.301 515.288 445.28 515.871 447.011 517.037C448.778 518.168 450.138 519.775 451.092 521.86C452.081 523.945 452.576 526.33 452.576 529.015C452.576 531.7 452.081 534.068 451.092 536.117C450.138 538.131 448.795 539.686 447.064 540.781C445.333 541.876 443.336 542.424 441.075 542.424C439.414 542.424 437.877 542.088 436.464 541.417C435.086 540.746 434.008 539.845 433.231 538.714V547.724C433.231 548.961 432.807 549.95 431.959 550.692C431.111 551.434 429.998 551.805 428.62 551.805C427.171 551.805 426.005 551.399 425.122 550.586C424.239 549.809 423.797 548.802 423.797 547.565V519.74C423.797 518.433 424.203 517.39 425.016 516.613C425.864 515.8 426.995 515.394 428.408 515.394C429.751 515.394 430.828 515.747 431.641 516.454C432.489 517.161 432.966 518.097 433.072 519.263C433.814 518.026 434.892 517.055 436.305 516.348C437.754 515.641 439.344 515.288 441.075 515.288ZM438.213 535.375C439.838 535.375 441.075 534.827 441.923 533.732C442.806 532.637 443.248 531.064 443.248 529.015C443.248 526.86 442.806 525.217 441.923 524.086C441.04 522.92 439.785 522.337 438.16 522.337C436.535 522.337 435.28 522.902 434.397 524.033C433.514 525.164 433.072 526.789 433.072 528.909C433.072 530.994 433.514 532.601 434.397 533.732C435.28 534.827 436.552 535.375 438.213 535.375ZM470.066 542.424C467.204 542.424 464.678 541.876 462.487 540.781C460.332 539.65 458.653 538.06 457.452 536.011C456.286 533.962 455.703 531.559 455.703 528.803C455.703 526.047 456.286 523.662 457.452 521.648C458.653 519.599 460.332 518.026 462.487 516.931C464.642 515.836 467.169 515.288 470.066 515.288C472.963 515.288 475.49 515.836 477.645 516.931C479.8 518.026 481.461 519.599 482.627 521.648C483.828 523.662 484.429 526.047 484.429 528.803C484.429 531.559 483.828 533.962 482.627 536.011C481.461 538.06 479.8 539.65 477.645 540.781C475.49 541.876 472.963 542.424 470.066 542.424ZM470.066 535.375C473.423 535.375 475.101 533.184 475.101 528.803C475.101 524.422 473.423 522.231 470.066 522.231C466.709 522.231 465.031 524.422 465.031 528.803C465.031 533.184 466.709 535.375 470.066 535.375ZM522.953 518.044C523.306 517.161 523.801 516.507 524.437 516.083C525.108 515.624 525.833 515.394 526.61 515.394C527.776 515.394 528.818 515.8 529.737 516.613C530.656 517.39 531.115 518.344 531.115 519.475C531.115 520.005 530.974 520.588 530.691 521.224L522.105 539.615C521.716 540.498 521.116 541.187 520.303 541.682C519.526 542.141 518.66 542.371 517.706 542.371C516.752 542.371 515.886 542.141 515.109 541.682C514.332 541.187 513.749 540.498 513.36 539.615L508.325 528.432L503.608 539.615C503.255 540.498 502.672 541.187 501.859 541.682C501.082 542.141 500.216 542.371 499.262 542.371C498.308 542.371 497.425 542.141 496.612 541.682C495.835 541.187 495.234 540.498 494.81 539.615L486.277 521.224C486.03 520.694 485.906 520.129 485.906 519.528C485.906 518.362 486.383 517.39 487.337 516.613C488.326 515.8 489.422 515.394 490.623 515.394C491.471 515.394 492.231 515.624 492.902 516.083C493.609 516.507 494.139 517.178 494.492 518.097L499.527 530.34L504.668 518.15C505.021 517.267 505.569 516.595 506.311 516.136C507.053 515.677 507.848 515.447 508.696 515.447C509.544 515.447 510.339 515.677 511.081 516.136C511.823 516.595 512.371 517.267 512.724 518.15L518.024 530.393L522.953 518.044ZM554.982 533.626C555.795 533.626 556.449 533.944 556.943 534.58C557.473 535.216 557.738 536.046 557.738 537.071C557.738 538.484 557.049 539.562 555.671 540.304C554.47 540.905 553.039 541.417 551.378 541.841C549.753 542.23 548.251 542.424 546.873 542.424C543.976 542.424 541.45 541.876 539.294 540.781C537.139 539.686 535.478 538.113 534.312 536.064C533.146 534.015 532.563 531.612 532.563 528.856C532.563 526.241 533.111 523.909 534.206 521.86C535.337 519.775 536.892 518.168 538.87 517.037C540.884 515.871 543.146 515.288 545.654 515.288C548.092 515.288 550.23 515.818 552.067 516.878C553.905 517.938 555.318 519.44 556.307 521.383C557.332 523.326 557.844 525.605 557.844 528.22C557.844 529.033 557.65 529.669 557.261 530.128C556.908 530.552 556.378 530.764 555.671 530.764H541.679C541.927 532.46 542.474 533.679 543.322 534.421C544.17 535.163 545.425 535.534 547.085 535.534C547.969 535.534 548.781 535.446 549.523 535.269C550.265 535.057 551.096 534.774 552.014 534.421C552.544 534.209 553.057 534.032 553.551 533.891C554.081 533.714 554.558 533.626 554.982 533.626ZM545.919 521.648C544.683 521.648 543.693 522.054 542.951 522.867C542.209 523.644 541.768 524.793 541.626 526.312H549.947C549.735 523.203 548.393 521.648 545.919 521.648ZM578.682 515.394C579.883 515.288 580.837 515.571 581.544 516.242C582.25 516.878 582.604 517.832 582.604 519.104C582.604 520.517 582.268 521.542 581.597 522.178C580.961 522.814 579.795 523.22 578.099 523.397L576.509 523.556C574.742 523.768 573.47 524.333 572.693 525.252C571.951 526.135 571.58 527.354 571.58 528.909V537.972C571.58 539.421 571.12 540.516 570.202 541.258C569.318 541.965 568.205 542.318 566.863 542.318C565.52 542.318 564.389 541.965 563.471 541.258C562.587 540.516 562.146 539.421 562.146 537.972V519.634C562.146 518.291 562.587 517.249 563.471 516.507C564.389 515.765 565.485 515.394 566.757 515.394C568.064 515.394 569.106 515.747 569.884 516.454C570.696 517.161 571.103 518.15 571.103 519.422V520.429C571.668 518.874 572.587 517.673 573.859 516.825C575.166 515.977 576.526 515.518 577.94 515.447L578.682 515.394ZM605.032 533.626C605.845 533.626 606.499 533.944 606.993 534.58C607.523 535.216 607.788 536.046 607.788 537.071C607.788 538.484 607.099 539.562 605.721 540.304C604.52 540.905 603.089 541.417 601.428 541.841C599.803 542.23 598.301 542.424 596.923 542.424C594.026 542.424 591.5 541.876 589.344 540.781C587.189 539.686 585.528 538.113 584.362 536.064C583.196 534.015 582.613 531.612 582.613 528.856C582.613 526.241 583.161 523.909 584.256 521.86C585.387 519.775 586.942 518.168 588.92 517.037C590.934 515.871 593.196 515.288 595.704 515.288C598.142 515.288 600.28 515.818 602.117 516.878C603.955 517.938 605.368 519.44 606.357 521.383C607.382 523.326 607.894 525.605 607.894 528.22C607.894 529.033 607.7 529.669 607.311 530.128C606.958 530.552 606.428 530.764 605.721 530.764H591.729C591.977 532.46 592.524 533.679 593.372 534.421C594.22 535.163 595.475 535.534 597.135 535.534C598.019 535.534 598.831 535.446 599.573 535.269C600.315 535.057 601.146 534.774 602.064 534.421C602.594 534.209 603.107 534.032 603.601 533.891C604.131 533.714 604.608 533.626 605.032 533.626ZM595.969 521.648C594.733 521.648 593.743 522.054 593.001 522.867C592.259 523.644 591.818 524.793 591.676 526.312H599.997C599.785 523.203 598.443 521.648 595.969 521.648ZM634.985 504.37C636.399 504.37 637.547 504.776 638.43 505.589C639.349 506.366 639.808 507.373 639.808 508.61V537.972C639.808 539.315 639.384 540.375 638.536 541.152C637.688 541.929 636.558 542.318 635.144 542.318C633.837 542.318 632.759 541.982 631.911 541.311C631.099 540.604 630.639 539.65 630.533 538.449C629.791 539.686 628.696 540.657 627.247 541.364C625.834 542.071 624.262 542.424 622.53 542.424C620.304 542.424 618.308 541.859 616.541 540.728C614.81 539.562 613.45 537.937 612.46 535.852C611.471 533.767 610.976 531.382 610.976 528.697C610.976 526.012 611.453 523.662 612.407 521.648C613.397 519.599 614.757 518.026 616.488 516.931C618.255 515.836 620.269 515.288 622.53 515.288C624.191 515.288 625.71 515.624 627.088 516.295C628.502 516.966 629.597 517.867 630.374 518.998V508.451C630.374 507.214 630.781 506.225 631.593 505.483C632.441 504.741 633.572 504.37 634.985 504.37ZM625.392 535.375C627.053 535.375 628.325 534.81 629.208 533.679C630.092 532.548 630.533 530.923 630.533 528.803C630.533 526.718 630.092 525.128 629.208 524.033C628.325 522.902 627.053 522.337 625.392 522.337C623.767 522.337 622.513 522.885 621.629 523.98C620.746 525.075 620.304 526.648 620.304 528.697C620.304 530.817 620.746 532.46 621.629 533.626C622.548 534.792 623.802 535.375 625.392 535.375ZM677.763 515.288C680.025 515.288 682.021 515.836 683.752 516.931C685.484 518.026 686.826 519.599 687.78 521.648C688.77 523.662 689.264 526.012 689.264 528.697C689.264 531.382 688.77 533.767 687.78 535.852C686.826 537.937 685.466 539.562 683.699 540.728C681.968 541.859 679.989 542.424 677.763 542.424C676.032 542.424 674.442 542.071 672.993 541.364C671.58 540.657 670.502 539.686 669.76 538.449C669.654 539.65 669.177 540.604 668.329 541.311C667.517 541.982 666.439 542.318 665.096 542.318C663.683 542.318 662.552 541.929 661.704 541.152C660.892 540.339 660.485 539.279 660.485 537.972V508.61C660.485 507.373 660.927 506.366 661.81 505.589C662.694 504.776 663.86 504.37 665.308 504.37C666.686 504.37 667.799 504.741 668.647 505.483C669.495 506.225 669.919 507.214 669.919 508.451V518.998C670.697 517.867 671.774 516.966 673.152 516.295C674.566 515.624 676.103 515.288 677.763 515.288ZM674.848 535.375C676.474 535.375 677.728 534.81 678.611 533.679C679.495 532.513 679.936 530.852 679.936 528.697C679.936 526.648 679.495 525.075 678.611 523.98C677.763 522.885 676.527 522.337 674.901 522.337C673.241 522.337 671.969 522.902 671.085 524.033C670.202 525.128 669.76 526.718 669.76 528.803C669.76 530.923 670.202 532.548 671.085 533.679C671.969 534.81 673.223 535.375 674.848 535.375ZM710.478 518.044C710.867 517.161 711.397 516.507 712.068 516.083C712.739 515.659 713.481 515.447 714.294 515.447C715.46 515.447 716.502 515.836 717.421 516.613C718.34 517.39 718.799 518.327 718.799 519.422C718.799 520.023 718.658 520.606 718.375 521.171L704.33 549.314C703.906 550.197 703.341 550.851 702.634 551.275C701.963 551.699 701.221 551.911 700.408 551.911C699.242 551.911 698.2 551.522 697.281 550.745C696.398 550.003 695.956 549.084 695.956 547.989C695.956 547.388 696.115 546.77 696.433 546.134L699.878 539.191L690.868 521.171C690.585 520.535 690.444 519.97 690.444 519.475C690.444 518.344 690.939 517.39 691.928 516.613C692.917 515.8 694.03 515.394 695.267 515.394C696.115 515.394 696.892 515.624 697.599 516.083C698.341 516.507 698.906 517.161 699.295 518.044L704.913 530.234L710.478 518.044Z" fill="url(#paint1_linear)"/>
<g filter="url(#filter0_d)">
<path d="M223.925 271.028C217.895 271.028 213.071 269.487 209.453 266.405C205.969 263.189 204.227 258.968 204.227 253.742C204.227 248.516 205.969 244.362 209.453 241.28C212.937 238.198 217.761 236.657 223.925 236.657C229.821 236.657 234.578 238.198 238.196 241.28C241.814 244.362 243.623 248.516 243.623 253.742C243.623 258.968 241.814 263.189 238.196 266.405C234.712 269.487 229.955 271.028 223.925 271.028ZM225.734 287.108C236.454 287.108 241.814 291.463 241.814 300.173V370.724C241.814 376.218 240.072 380.372 236.588 383.186C233.238 385.866 229.017 387.206 223.925 387.206C218.833 387.206 214.545 385.866 211.061 383.186C207.711 380.372 206.036 376.218 206.036 370.724V313.439H171.263V370.322C171.263 375.816 169.521 379.97 166.037 382.784C162.687 385.598 158.466 387.005 153.374 387.005C148.282 387.005 143.994 385.598 140.51 382.784C137.16 379.97 135.485 375.816 135.485 370.322V313.439H129.656C118.936 313.439 113.576 309.017 113.576 300.173C113.576 291.463 118.936 287.108 129.656 287.108H135.485C136.021 274.646 139.974 264.797 147.344 257.561C154.714 250.191 164.697 245.836 177.293 244.496L181.313 244.094C182.251 243.96 183.591 243.893 185.333 243.893C195.249 243.893 200.207 248.047 200.207 256.355C200.207 260.375 199.068 263.524 196.79 265.802C194.512 267.946 191.698 269.152 188.348 269.42L184.328 269.822C179.504 270.358 176.087 271.899 174.077 274.445C172.201 276.991 171.263 280.408 171.263 284.696V287.108H225.734Z" fill="#FE7C7C"/>
<path d="M329.205 284.696C340.997 284.696 349.774 288.247 355.536 295.349C361.298 302.317 364.179 312.97 364.179 327.308V370.724C364.179 375.816 362.571 379.836 359.355 382.784C356.139 385.732 351.784 387.206 346.29 387.206C340.796 387.206 336.441 385.732 333.225 382.784C330.009 379.836 328.401 375.816 328.401 370.724V328.916C328.401 323.02 327.329 318.732 325.185 316.052C323.175 313.372 320.093 312.032 315.939 312.032C310.579 312.032 306.291 313.774 303.075 317.258C299.993 320.608 298.452 325.164 298.452 330.926V370.724C298.452 375.816 296.844 379.836 293.628 382.784C290.412 385.732 286.057 387.206 280.563 387.206C275.069 387.206 270.714 385.732 267.498 382.784C264.282 379.836 262.674 375.816 262.674 370.724V301.178C262.674 296.488 264.349 292.669 267.699 289.721C271.049 286.639 275.404 285.098 280.764 285.098C285.856 285.098 289.876 286.505 292.824 289.319C295.906 292.133 297.447 295.818 297.447 300.374C300.931 295.282 305.42 291.396 310.914 288.716C316.408 286.036 322.505 284.696 329.205 284.696Z" fill="#FEC27C"/>
<path d="M470.803 243.29C476.163 243.29 480.518 244.831 483.868 247.913C487.352 250.861 489.094 254.68 489.094 259.37V370.724C489.094 375.816 487.486 379.836 484.27 382.784C481.054 385.732 476.766 387.206 471.406 387.206C466.448 387.206 462.361 385.933 459.145 383.387C456.063 380.707 454.321 377.089 453.919 372.533C451.105 377.223 446.951 380.908 441.457 383.588C436.097 386.268 430.134 387.608 423.568 387.608C415.126 387.608 407.555 385.464 400.855 381.176C394.289 376.754 389.13 370.59 385.378 362.684C381.626 354.778 379.75 345.733 379.75 335.549C379.75 325.365 381.559 316.454 385.177 308.816C388.929 301.044 394.088 295.081 400.654 290.927C407.354 286.773 414.992 284.696 423.568 284.696C429.866 284.696 435.628 285.969 440.854 288.515C446.214 291.061 450.368 294.478 453.316 298.766V258.767C453.316 254.077 454.857 250.325 457.939 247.511C461.155 244.697 465.443 243.29 470.803 243.29ZM434.422 360.875C440.72 360.875 445.544 358.731 448.894 354.443C452.244 350.155 453.919 343.991 453.919 335.951C453.919 328.045 452.244 322.015 448.894 317.861C445.544 313.573 440.72 311.429 434.422 311.429C428.258 311.429 423.501 313.506 420.151 317.66C416.801 321.814 415.126 327.777 415.126 335.549C415.126 343.589 416.801 349.82 420.151 354.242C423.635 358.664 428.392 360.875 434.422 360.875Z" fill="#FEF17C"/>
<path d="M525.475 346.001C514.353 346.001 508.792 341.311 508.792 331.931C508.792 322.685 514.353 318.062 525.475 318.062H563.263C568.891 318.062 573.045 319.268 575.725 321.68C578.539 324.092 579.946 327.509 579.946 331.931C579.946 336.353 578.539 339.837 575.725 342.383C573.045 344.795 568.891 346.001 563.263 346.001H525.475Z" fill="#C5FE7C"/>
<path d="M645.731 284.696C661.007 284.696 672.263 288.381 679.499 295.751C686.869 302.987 690.554 314.042 690.554 328.916V370.925C690.554 376.017 689.013 380.037 685.931 382.985C682.983 385.799 678.829 387.206 673.469 387.206C668.779 387.206 664.893 385.866 661.811 383.186C658.863 380.506 657.255 376.888 656.987 372.332C655.111 377.156 651.962 380.908 647.54 383.588C643.118 386.268 637.825 387.608 631.661 387.608C624.827 387.608 618.663 386.268 613.169 383.588C607.675 380.774 603.32 376.955 600.104 372.131C597.022 367.173 595.481 361.612 595.481 355.448C595.481 348.346 597.29 342.718 600.908 338.564C604.66 334.276 610.556 331.194 618.596 329.318C626.636 327.442 637.49 326.504 651.158 326.504H656.585V324.092C656.585 319.402 655.513 316.052 653.369 314.042C651.225 311.898 647.607 310.826 642.515 310.826C637.021 310.826 628.981 312.702 618.395 316.454C615.313 317.526 612.7 318.062 610.556 318.062C607.206 318.062 604.526 316.856 602.516 314.444C600.506 312.032 599.501 308.883 599.501 304.997C599.501 302.049 600.104 299.637 601.31 297.761C602.516 295.885 604.459 294.21 607.139 292.736C611.829 290.324 617.725 288.381 624.827 286.907C631.929 285.433 638.897 284.696 645.731 284.696ZM640.103 363.689C644.927 363.689 648.88 362.014 651.962 358.664C655.044 355.18 656.585 350.758 656.585 345.398V342.986H653.369C644.793 342.986 638.696 343.79 635.078 345.398C631.46 346.872 629.651 349.418 629.651 353.036C629.651 356.118 630.589 358.664 632.465 360.674C634.475 362.684 637.021 363.689 640.103 363.689Z" fill="#7CFEDF"/>
<path d="M726.082 346.001C714.96 346.001 709.399 341.311 709.399 331.931C709.399 322.685 714.96 318.062 726.082 318.062H763.87C769.498 318.062 773.652 319.268 776.332 321.68C779.146 324.092 780.553 327.509 780.553 331.931C780.553 336.353 779.146 339.837 776.332 342.383C773.652 344.795 769.498 346.001 763.87 346.001H726.082Z" fill="#7CCFFE"/>
<path d="M897.392 271.028C891.362 271.028 886.538 269.487 882.92 266.405C879.436 263.189 877.694 258.968 877.694 253.742C877.694 248.516 879.436 244.362 882.92 241.28C886.404 238.198 891.228 236.657 897.392 236.657C903.288 236.657 908.045 238.198 911.663 241.28C915.281 244.362 917.09 248.516 917.09 253.742C917.09 258.968 915.281 263.189 911.663 266.405C908.179 269.487 903.422 271.028 897.392 271.028ZM899.201 287.108C909.921 287.108 915.281 291.463 915.281 300.173V370.724C915.281 376.218 913.539 380.372 910.055 383.186C906.705 385.866 902.484 387.206 897.392 387.206C892.3 387.206 888.012 385.866 884.528 383.186C881.178 380.372 879.503 376.218 879.503 370.724V313.439H844.73V370.322C844.73 375.816 842.988 379.97 839.504 382.784C836.154 385.598 831.933 387.005 826.841 387.005C821.749 387.005 817.461 385.598 813.977 382.784C810.627 379.97 808.952 375.816 808.952 370.322V313.439H803.123C792.403 313.439 787.043 309.017 787.043 300.173C787.043 291.463 792.403 287.108 803.123 287.108H808.952C809.488 274.646 813.441 264.797 820.811 257.561C828.181 250.191 838.164 245.836 850.76 244.496L854.78 244.094C855.718 243.96 857.058 243.893 858.8 243.893C868.716 243.893 873.674 248.047 873.674 256.355C873.674 260.375 872.535 263.524 870.257 265.802C867.979 267.946 865.165 269.152 861.815 269.42L857.795 269.822C852.971 270.358 849.554 271.899 847.544 274.445C845.668 276.991 844.73 280.408 844.73 284.696V287.108H899.201Z" fill="#7C98FE"/>
<path d="M954.03 387.206C948.938 387.206 944.65 385.866 941.166 383.186C937.816 380.372 936.141 376.218 936.141 370.724V259.973C936.141 254.479 937.816 250.325 941.166 247.511C944.65 244.697 948.938 243.29 954.03 243.29C959.122 243.29 963.343 244.697 966.693 247.511C970.177 250.325 971.919 254.479 971.919 259.973V370.724C971.919 376.218 970.177 380.372 966.693 383.186C963.343 385.866 959.122 387.206 954.03 387.206Z" fill="#A57CFE"/>
<path d="M1118.9 284.696C1129.75 284.696 1138.13 287.979 1144.03 294.545C1149.92 300.977 1152.87 311.898 1152.87 327.308V370.724C1152.87 376.218 1151.13 380.372 1147.64 383.186C1144.29 385.866 1140.07 387.206 1134.98 387.206C1129.89 387.206 1125.6 385.866 1122.12 383.186C1118.77 380.372 1117.09 376.218 1117.09 370.724V326.504C1117.09 321.144 1116.15 317.392 1114.28 315.248C1112.4 313.104 1109.65 312.032 1106.04 312.032C1101.35 312.032 1097.59 313.707 1094.78 317.057C1091.97 320.407 1090.56 325.03 1090.56 330.926V370.724C1090.56 376.218 1088.88 380.372 1085.53 383.186C1082.18 385.866 1077.9 387.206 1072.67 387.206C1067.58 387.206 1063.29 385.866 1059.81 383.186C1056.46 380.372 1054.78 376.218 1054.78 370.724V326.504C1054.78 321.144 1053.84 317.392 1051.97 315.248C1050.09 313.104 1047.34 312.032 1043.73 312.032C1039.04 312.032 1035.28 313.707 1032.47 317.057C1029.79 320.407 1028.45 325.03 1028.45 330.926V370.724C1028.45 376.218 1026.71 380.372 1023.22 383.186C1019.87 385.866 1015.65 387.206 1010.56 387.206C1005.47 387.206 1001.18 385.866 997.698 383.186C994.348 380.372 992.673 376.218 992.673 370.724V301.178C992.673 295.952 994.415 291.999 997.899 289.319C1001.52 286.505 1005.8 285.098 1010.76 285.098C1015.45 285.098 1019.34 286.371 1022.42 288.917C1025.64 291.329 1027.31 294.88 1027.45 299.57C1034.01 289.654 1044.06 284.696 1057.6 284.696C1071.93 284.696 1081.51 290.525 1086.34 302.183C1089.69 296.823 1094.18 292.602 1099.81 289.52C1105.43 286.304 1111.8 284.696 1118.9 284.696Z" fill="#FE7CF1"/>
<path d="M209.453 266.405L194.191 282.938L194.521 283.242L194.862 283.533L209.453 266.405ZM209.453 241.28L224.361 258.132L224.361 258.132L209.453 241.28ZM238.196 241.28L223.605 258.408L223.605 258.408L238.196 241.28ZM238.196 266.405L253.104 283.257L253.124 283.24L253.144 283.222L238.196 266.405ZM236.588 383.186L250.643 400.756L250.684 400.723L250.725 400.69L236.588 383.186ZM211.061 383.186L196.589 400.414L196.959 400.725L197.342 401.02L211.061 383.186ZM206.036 313.439H228.536V290.939H206.036V313.439ZM171.263 313.439V290.939H148.763V313.439H171.263ZM166.037 382.784L151.899 365.28L151.731 365.416L151.565 365.556L166.037 382.784ZM140.51 382.784L126.038 400.012L126.204 400.152L126.372 400.288L140.51 382.784ZM135.485 313.439H157.985V290.939H135.485V313.439ZM135.485 287.108V309.608H157.038L157.964 288.075L135.485 287.108ZM147.344 257.561L163.107 273.616L163.181 273.544L163.254 273.471L147.344 257.561ZM177.293 244.496L175.054 222.108L174.983 222.115L174.912 222.122L177.293 244.496ZM181.313 244.094L183.551 266.482L184.024 266.435L184.495 266.368L181.313 244.094ZM196.79 265.802L212.21 282.186L212.459 281.953L212.7 281.712L196.79 265.802ZM188.348 269.42L186.553 246.992L186.331 247.009L186.109 247.032L188.348 269.42ZM184.328 269.822L182.089 247.434L181.966 247.446L181.843 247.46L184.328 269.822ZM174.077 274.445L156.417 260.503L156.185 260.797L155.963 261.098L174.077 274.445ZM171.263 287.108H148.763V309.608H171.263V287.108ZM223.925 248.528C222.803 248.528 222.454 248.383 222.631 248.439C222.725 248.469 222.928 248.544 223.199 248.693C223.474 248.843 223.764 249.039 224.043 249.277L194.862 283.533C203.548 290.932 214.023 293.528 223.925 293.528V248.528ZM224.714 249.872C225.279 250.393 225.908 251.217 226.332 252.244C226.735 253.22 226.727 253.832 226.727 253.742H181.727C181.727 264.534 185.593 275.001 194.191 282.938L224.714 249.872ZM226.727 253.742C226.727 253.644 226.737 254.325 226.283 255.408C225.801 256.557 225.069 257.506 224.361 258.132L194.545 224.428C185.606 232.335 181.727 242.957 181.727 253.742H226.727ZM224.361 258.132C223.988 258.462 223.608 258.724 223.257 258.918C222.912 259.111 222.652 259.207 222.53 259.246C222.309 259.316 222.68 259.157 223.925 259.157V214.157C214.084 214.157 203.325 216.661 194.545 224.428L224.361 258.132ZM223.925 259.157C224.929 259.157 225.201 259.289 224.98 259.218C224.867 259.181 224.66 259.102 224.395 258.956C224.128 258.808 223.858 258.623 223.605 258.408L252.786 224.152C244.188 216.828 233.838 214.157 223.925 214.157V259.157ZM223.605 258.408C222.939 257.841 222.167 256.907 221.637 255.691C221.395 255.134 221.261 254.647 221.191 254.284C221.122 253.928 221.123 253.733 221.123 253.742H266.123C266.123 242.664 261.96 231.967 252.786 224.152L223.605 258.408ZM221.123 253.742C221.123 253.75 221.122 253.569 221.185 253.241C221.249 252.907 221.37 252.466 221.585 251.964C222.054 250.87 222.721 250.056 223.247 249.588L253.144 283.222C261.98 275.368 266.123 264.819 266.123 253.742H221.123ZM223.288 249.553C223.633 249.247 223.993 248.997 224.336 248.804C224.675 248.614 224.939 248.513 225.081 248.467C225.348 248.381 225.054 248.528 223.925 248.528V293.528C233.779 293.528 244.408 290.949 253.104 283.257L223.288 249.553ZM225.734 309.608C228.628 309.608 226.624 310.289 223.605 307.837C221.957 306.498 220.717 304.764 219.992 302.997C219.324 301.368 219.314 300.261 219.314 300.173H264.314C264.314 290.972 261.254 280.445 251.982 272.912C243.603 266.104 233.559 264.608 225.734 264.608V309.608ZM219.314 300.173V370.724H264.314V300.173H219.314ZM219.314 370.724C219.314 371.122 219.249 370.471 219.758 369.259C220.319 367.92 221.276 366.631 222.45 365.682L250.725 400.69C260.691 392.641 264.314 381.318 264.314 370.724H219.314ZM222.532 365.616C222.787 365.412 223.068 365.227 223.36 365.072C223.651 364.918 223.907 364.817 224.101 364.756C224.494 364.631 224.5 364.706 223.925 364.706V409.706C233.132 409.706 242.592 407.197 250.643 400.756L222.532 365.616ZM223.925 364.706C223.356 364.706 223.305 364.633 223.601 364.725C223.745 364.77 223.939 364.845 224.161 364.96C224.384 365.075 224.594 365.21 224.779 365.352L197.342 401.02C205.363 407.19 214.69 409.706 223.925 409.706V364.706ZM225.532 365.958C226.748 366.979 227.653 368.29 228.159 369.546C228.614 370.674 228.536 371.222 228.536 370.724H183.536C183.536 381.02 186.888 392.266 196.589 400.414L225.532 365.958ZM228.536 370.724V313.439H183.536V370.724H228.536ZM206.036 290.939H171.263V335.939H206.036V290.939ZM148.763 313.439V370.322H193.763V313.439H148.763ZM148.763 370.322C148.763 370.72 148.698 370.069 149.207 368.857C149.768 367.518 150.725 366.229 151.899 365.28L180.174 400.288C190.14 392.239 193.763 380.916 193.763 370.322H148.763ZM151.565 365.556C152.098 365.108 152.711 364.782 153.243 364.604C153.732 364.442 153.845 364.505 153.374 364.505V409.505C162.846 409.505 172.456 406.776 180.508 400.012L151.565 365.556ZM153.374 364.505C152.909 364.505 152.964 364.443 153.353 364.571C153.542 364.633 153.769 364.727 154.012 364.859C154.255 364.991 154.47 365.137 154.647 365.28L126.372 400.288C134.401 406.773 143.88 409.505 153.374 409.505V364.505ZM154.981 365.556C156.197 366.577 157.102 367.888 157.608 369.144C158.063 370.272 157.985 370.82 157.985 370.322H112.985C112.985 380.618 116.337 391.864 126.038 400.012L154.981 365.556ZM157.985 370.322V313.439H112.985V370.322H157.985ZM135.485 290.939H129.656V335.939H135.485V290.939ZM129.656 290.939C126.824 290.939 128.884 290.266 131.914 292.767C133.552 294.118 134.752 295.839 135.442 297.548C136.077 299.119 136.076 300.156 136.076 300.173H91.0756C91.0756 309.326 94.0578 319.872 103.277 327.478C111.667 334.401 121.767 335.939 129.656 335.939V290.939ZM136.076 300.173C136.076 300.261 136.065 301.368 135.397 302.997C134.672 304.764 133.432 306.498 131.784 307.837C128.765 310.289 126.761 309.608 129.656 309.608V264.608C121.83 264.608 111.786 266.104 103.407 272.912C94.135 280.445 91.0756 290.972 91.0756 300.173H136.076ZM129.656 309.608H135.485V264.608H129.656V309.608ZM157.964 288.075C158.309 280.06 160.621 276.057 163.107 273.616L131.58 241.506C119.327 253.537 113.733 269.232 113.005 286.141L157.964 288.075ZM163.254 273.471C166.25 270.474 171.054 267.787 179.673 266.87L174.912 222.122C158.339 223.885 143.177 229.908 131.434 241.651L163.254 273.471ZM179.531 266.884L183.551 266.482L179.074 221.706L175.054 222.108L179.531 266.884ZM184.495 266.368C184.257 266.402 184.108 266.416 184.069 266.419C184.026 266.423 184.047 266.42 184.145 266.415C184.35 266.405 184.733 266.393 185.333 266.393V221.393C183.25 221.393 180.655 221.459 178.131 221.82L184.495 266.368ZM185.333 266.393C187.697 266.393 185.28 266.971 182.038 264.255C180.312 262.809 179.077 260.996 178.371 259.22C177.719 257.582 177.707 256.469 177.707 256.355H222.707C222.707 247.585 219.9 237.271 210.938 229.762C202.738 222.892 192.884 221.393 185.333 221.393V266.393ZM177.707 256.355C177.707 256.264 177.718 255.395 178.194 254.079C178.702 252.675 179.592 251.18 180.88 249.892L212.7 281.712C220.187 274.225 222.707 264.779 222.707 256.355H177.707ZM181.369 249.418C182.105 248.725 183.041 248.091 184.107 247.634C185.155 247.185 186.03 247.034 186.553 246.992L190.142 291.848C198.183 291.205 205.923 288.104 212.21 282.186L181.369 249.418ZM186.109 247.032L182.089 247.434L186.567 292.21L190.587 291.808L186.109 247.032ZM181.843 247.46C173.98 248.333 163.659 251.33 156.417 260.503L191.737 288.387C190.181 290.358 188.464 291.409 187.397 291.89C186.436 292.324 186.087 292.265 186.812 292.184L181.843 247.46ZM155.963 261.098C150.379 268.676 148.763 277.289 148.763 284.696H193.763C193.763 283.527 194.022 285.306 192.19 287.792L155.963 261.098ZM148.763 284.696V287.108H193.763V284.696H148.763ZM171.263 309.608H225.734V264.608H171.263V309.608ZM355.536 295.349L338.063 309.525L338.129 309.606L338.196 309.687L355.536 295.349ZM359.355 382.784L374.558 399.37L374.558 399.37L359.355 382.784ZM333.225 382.784L348.428 366.198L348.428 366.198L333.225 382.784ZM325.185 316.052L307.185 329.552L307.396 329.833L307.615 330.108L325.185 316.052ZM303.075 317.258L286.542 301.997L286.529 302.01L286.516 302.024L303.075 317.258ZM293.628 382.784L308.831 399.37L308.831 399.37L293.628 382.784ZM267.498 382.784L282.701 366.198L282.701 366.198L267.498 382.784ZM267.699 289.721L282.563 306.612L282.749 306.448L282.932 306.279L267.699 289.721ZM292.824 289.319L277.288 305.594L277.468 305.767L277.653 305.935L292.824 289.319ZM297.447 300.374H274.947V373.104L316.016 313.079L297.447 300.374ZM310.914 288.716L301.049 268.494L301.049 268.494L310.914 288.716ZM329.205 307.196C336.339 307.196 337.752 309.142 338.063 309.525L373.008 281.173C361.795 267.352 345.654 262.196 329.205 262.196V307.196ZM338.196 309.687C339.158 310.851 341.679 315.32 341.679 327.308H386.679C386.679 310.62 383.437 293.783 372.875 281.011L338.196 309.687ZM341.679 327.308V370.724H386.679V327.308H341.679ZM341.679 370.724C341.679 370.903 341.653 370.273 342.082 369.202C342.542 368.052 343.289 366.988 344.151 366.198L374.558 399.37C383.211 391.438 386.679 380.969 386.679 370.724H341.679ZM344.151 366.198C344.972 365.445 345.84 364.999 346.463 364.788C347.012 364.602 347.048 364.706 346.29 364.706V409.706C355.895 409.706 366.195 407.036 374.558 399.37L344.151 366.198ZM346.29 364.706C345.532 364.706 345.568 364.602 346.116 364.788C346.739 364.999 347.607 365.445 348.428 366.198L318.021 399.37C326.384 407.036 336.684 409.706 346.29 409.706V364.706ZM348.428 366.198C349.29 366.988 350.037 368.052 350.497 369.202C350.926 370.273 350.901 370.903 350.901 370.724H305.901C305.901 380.969 309.368 391.438 318.021 399.37L348.428 366.198ZM350.901 370.724V328.916H305.901V370.724H350.901ZM350.901 328.916C350.901 321.231 349.681 310.654 342.754 301.996L307.615 330.108C306.172 328.304 305.8 326.861 305.768 326.735C305.745 326.643 305.783 326.764 305.823 327.151C305.864 327.535 305.901 328.114 305.901 328.916H350.901ZM343.185 302.552C335.907 292.848 325.284 289.532 315.939 289.532V334.532C315.637 334.532 314.268 334.486 312.394 333.671C310.37 332.791 308.528 331.343 307.185 329.552L343.185 302.552ZM315.939 289.532C305.204 289.532 294.594 293.273 286.542 301.997L319.608 332.519C319.028 333.148 318.17 333.778 317.171 334.184C316.235 334.564 315.708 334.532 315.939 334.532V289.532ZM286.516 302.024C278.675 310.547 275.952 321.079 275.952 330.926H320.952C320.952 330.026 321.074 329.945 320.921 330.397C320.843 330.629 320.704 330.963 320.475 331.354C320.245 331.748 319.96 332.136 319.633 332.492L286.516 302.024ZM275.952 330.926V370.724H320.952V330.926H275.952ZM275.952 370.724C275.952 370.903 275.926 370.273 276.355 369.202C276.815 368.052 277.562 366.988 278.424 366.198L308.831 399.37C317.484 391.438 320.952 380.969 320.952 370.724H275.952ZM278.424 366.198C279.245 365.445 280.113 364.999 280.736 364.788C281.285 364.602 281.321 364.706 280.563 364.706V409.706C290.168 409.706 300.468 407.036 308.831 399.37L278.424 366.198ZM280.563 364.706C279.805 364.706 279.841 364.602 280.389 364.788C281.012 364.999 281.88 365.445 282.701 366.198L252.294 399.37C260.657 407.036 270.957 409.706 280.563 409.706V364.706ZM282.701 366.198C283.563 366.988 284.31 368.052 284.77 369.202C285.199 370.273 285.174 370.903 285.174 370.724H240.174C240.174 380.969 243.641 391.438 252.294 399.37L282.701 366.198ZM285.174 370.724V301.178H240.174V370.724H285.174ZM285.174 301.178C285.174 301.556 285.094 302.559 284.535 303.834C283.964 305.137 283.176 306.073 282.563 306.612L252.835 272.83C244.356 280.291 240.174 290.397 240.174 301.178H285.174ZM282.932 306.279C282.338 306.826 281.626 307.238 280.983 307.465C280.398 307.672 280.238 307.598 280.764 307.598V262.598C270.825 262.598 260.69 265.595 252.465 273.163L282.932 306.279ZM280.764 307.598C281.26 307.598 280.959 307.668 280.165 307.39C279.291 307.084 278.235 306.499 277.288 305.594L308.359 273.043C300.246 265.299 290.128 262.598 280.764 262.598V307.598ZM277.653 305.935C276.887 305.236 276.082 304.187 275.533 302.874C275.003 301.607 274.947 300.66 274.947 300.374H319.947C319.947 290.143 316.203 280.198 307.995 272.703L277.653 305.935ZM316.016 313.079C317.32 311.173 318.822 309.892 320.778 308.938L301.049 268.494C292.017 272.9 284.541 279.391 278.877 287.669L316.016 313.079ZM320.778 308.938C322.914 307.897 325.59 307.196 329.205 307.196V262.196C319.419 262.196 309.902 264.175 301.049 268.494L320.778 308.938ZM483.868 247.913L468.634 264.471L468.978 264.788L469.334 265.089L483.868 247.913ZM484.27 382.784L499.474 399.37L499.474 399.37L484.27 382.784ZM459.145 383.387L444.381 400.366L444.772 400.706L445.179 401.028L459.145 383.387ZM453.919 372.533L476.332 370.555L470.247 301.588L434.625 360.957L453.919 372.533ZM441.457 383.588L431.592 363.366L431.493 363.414L431.395 363.463L441.457 383.588ZM400.855 381.176L388.286 399.838L388.505 399.985L388.726 400.127L400.855 381.176ZM385.378 362.684L405.705 353.037L405.705 353.037L385.378 362.684ZM385.177 308.816L364.914 299.034L364.878 299.109L364.843 299.184L385.177 308.816ZM400.654 290.927L388.798 271.804L388.711 271.858L388.624 271.913L400.654 290.927ZM440.854 288.515L431 308.742L431.1 308.791L431.2 308.839L440.854 288.515ZM453.316 298.766L434.775 311.513L475.816 371.209V298.766H453.316ZM457.939 247.511L443.123 230.578L442.944 230.735L442.768 230.895L457.939 247.511ZM448.894 317.861L431.163 331.713L431.27 331.85L431.38 331.985L448.894 317.861ZM420.151 317.66L402.637 303.536L402.637 303.536L420.151 317.66ZM420.151 354.242L402.216 367.829L402.345 367.999L402.477 368.167L420.151 354.242ZM470.803 265.79C471.328 265.79 471.169 265.864 470.584 265.657C469.941 265.43 469.229 265.018 468.634 264.471L499.102 231.355C490.876 223.787 480.741 220.79 470.803 220.79V265.79ZM469.334 265.089C468.768 264.61 467.939 263.691 467.316 262.326C466.701 260.977 466.594 259.867 466.594 259.37H511.594C511.594 248.272 507.096 238.094 498.402 230.737L469.334 265.089ZM466.594 259.37V370.724H511.594V259.37H466.594ZM466.594 370.724C466.594 370.903 466.568 370.273 466.997 369.202C467.457 368.052 468.205 366.988 469.066 366.198L499.474 399.37C508.127 391.438 511.594 380.969 511.594 370.724H466.594ZM469.066 366.198C469.827 365.5 470.665 365.05 471.328 364.823C471.922 364.618 472.039 364.706 471.406 364.706V409.706C481.046 409.706 491.211 406.945 499.474 399.37L469.066 366.198ZM471.406 364.706C470.845 364.706 470.879 364.634 471.313 364.769C471.793 364.919 472.457 365.228 473.111 365.746L445.179 401.028C453.15 407.338 462.471 409.706 471.406 409.706V364.706ZM473.909 366.408C474.635 367.04 475.321 367.908 475.799 368.903C476.257 369.853 476.327 370.503 476.332 370.555L431.506 374.511C432.353 384.113 436.363 393.393 444.381 400.366L473.909 366.408ZM434.625 360.957C434.309 361.484 433.649 362.362 431.592 363.366L451.321 403.81C460.253 399.454 467.9 392.962 473.212 384.109L434.625 360.957ZM431.395 363.463C429.449 364.436 426.981 365.108 423.568 365.108V410.108C433.287 410.108 442.745 408.1 451.519 403.713L431.395 363.463ZM423.568 365.108C419.149 365.108 415.837 364.051 412.984 362.225L388.726 400.127C399.273 406.877 411.103 410.108 423.568 410.108V365.108ZM413.423 362.514C410.551 360.579 407.914 357.692 405.705 353.037L365.051 372.331C370.346 383.488 378.027 392.929 388.286 399.838L413.423 362.514ZM405.705 353.037C403.6 348.601 402.25 342.94 402.25 335.549H357.25C357.25 348.526 359.652 360.955 365.051 372.331L405.705 353.037ZM402.25 335.549C402.25 328.024 403.581 322.521 405.511 318.448L364.843 299.184C359.536 310.387 357.25 322.706 357.25 335.549H402.25ZM405.439 318.598C407.572 314.18 410.056 311.604 412.683 309.941L388.624 271.913C378.12 278.558 370.285 287.908 364.914 299.034L405.439 318.598ZM412.51 310.05C415.338 308.296 418.799 307.196 423.568 307.196V262.196C411.184 262.196 399.369 265.25 388.798 271.804L412.51 310.05ZM423.568 307.196C426.741 307.196 429.094 307.814 431 308.742L450.708 268.288C442.162 264.124 432.991 262.196 423.568 262.196V307.196ZM431.2 308.839C433.493 309.928 434.371 310.925 434.775 311.513L471.857 286.019C466.365 278.031 458.935 272.194 450.508 268.191L431.2 308.839ZM475.816 298.766V258.767H430.816V298.766H475.816ZM475.816 258.767C475.816 258.901 475.788 259.758 475.285 260.984C474.756 262.271 473.949 263.361 473.11 264.127L442.768 230.895C434.413 238.524 430.816 248.622 430.816 258.767H475.816ZM472.755 264.444C471.962 265.138 471.147 265.538 470.582 265.724C470.083 265.888 470.071 265.79 470.803 265.79V220.79C461.426 220.79 451.404 223.332 443.123 230.578L472.755 264.444ZM434.422 383.375C446.416 383.375 458.306 378.942 466.624 368.295L431.163 340.591C431.388 340.303 431.727 339.94 432.191 339.575C432.658 339.208 433.152 338.917 433.625 338.706C434.59 338.277 435.021 338.375 434.422 338.375V383.375ZM466.624 368.295C474.234 358.555 476.419 346.708 476.419 335.951H431.419C431.419 338.467 431.151 339.966 430.95 340.704C430.763 341.392 430.704 341.18 431.163 340.591L466.624 368.295ZM476.419 335.951C476.419 325.29 474.217 313.419 466.408 303.737L431.38 331.985C430.825 331.298 430.827 330.958 430.984 331.521C431.155 332.139 431.419 333.525 431.419 335.951H476.419ZM466.624 304.009C458.306 293.362 446.416 288.929 434.422 288.929V333.929C435.021 333.929 434.59 334.027 433.625 333.598C433.152 333.387 432.658 333.096 432.191 332.729C431.727 332.364 431.388 332.001 431.163 331.713L466.624 304.009ZM434.422 288.929C422.638 288.929 410.95 293.227 402.637 303.536L437.665 331.784C437.435 332.07 437.096 332.422 436.639 332.773C436.179 333.126 435.696 333.405 435.234 333.607C434.292 334.018 433.866 333.929 434.422 333.929V288.929ZM402.637 303.536C394.875 313.16 392.626 324.913 392.626 335.549H437.626C437.626 333.222 437.883 331.905 438.044 331.332C438.188 330.817 438.185 331.14 437.665 331.784L402.637 303.536ZM392.626 335.549C392.626 346.369 394.836 358.087 402.216 367.829L438.085 340.655C438.766 341.553 437.626 340.809 437.626 335.549H392.626ZM402.477 368.167C410.566 378.433 422.063 383.375 434.422 383.375V338.375C434.194 338.375 434.809 338.346 435.815 338.813C436.868 339.303 437.546 339.964 437.824 340.317L402.477 368.167ZM575.725 321.68L560.673 338.404L560.875 338.586L561.082 338.763L575.725 321.68ZM575.725 342.383L590.777 359.107L590.799 359.087L590.82 359.068L575.725 342.383ZM525.475 323.501C522.535 323.501 524.524 322.801 527.468 325.284C529.039 326.608 530.143 328.256 530.759 329.816C531.322 331.239 531.292 332.101 531.292 331.931H486.292C486.292 341.189 489.218 351.891 498.457 359.683C506.962 366.856 517.292 368.501 525.475 368.501V323.501ZM531.292 331.931C531.292 331.829 531.311 332.758 530.718 334.237C530.07 335.854 528.928 337.516 527.346 338.831C524.411 341.271 522.474 340.562 525.475 340.562V295.562C517.354 295.562 507.075 297.164 498.579 304.227C489.287 311.952 486.292 322.634 486.292 331.931H531.292ZM525.475 340.562H563.263V295.562H525.475V340.562ZM563.263 340.562C564.555 340.562 564.794 340.71 564.326 340.574C563.789 340.418 562.308 339.875 560.673 338.404L590.777 304.956C582.183 297.222 571.464 295.562 563.263 295.562V340.562ZM561.082 338.763C559.8 337.664 558.739 336.206 558.085 334.619C557.473 333.131 557.446 332.093 557.446 331.931H602.446C602.446 322.336 599.139 312.115 590.368 304.597L561.082 338.763ZM557.446 331.931C557.446 331.757 557.477 330.8 558.028 329.435C558.611 327.991 559.54 326.684 560.629 325.698L590.82 359.068C599.142 351.539 602.446 341.557 602.446 331.931H557.446ZM560.673 325.659C562.308 324.188 563.789 323.645 564.326 323.489C564.794 323.353 564.555 323.501 563.263 323.501V368.501C571.464 368.501 582.183 366.841 590.777 359.107L560.673 325.659ZM563.263 323.501H525.475V368.501H563.263V323.501ZM679.499 295.751L663.444 311.514L663.588 311.662L663.736 311.806L679.499 295.751ZM685.931 382.985L701.467 399.261L701.475 399.252L701.484 399.244L685.931 382.985ZM661.811 383.186L646.676 399.835L646.86 400.002L647.047 400.165L661.811 383.186ZM656.987 372.332L679.448 371.011L636.017 364.177L656.987 372.332ZM647.54 383.588L659.202 402.83L659.202 402.83L647.54 383.588ZM613.169 383.588L602.912 403.614L603.107 403.714L603.304 403.81L613.169 383.588ZM600.104 372.131L580.995 384.01L581.184 384.314L581.383 384.612L600.104 372.131ZM600.908 338.564L583.975 323.748L583.958 323.767L583.941 323.786L600.908 338.564ZM618.596 329.318L623.709 351.229L623.709 351.229L618.596 329.318ZM656.585 326.504V349.004H679.085V326.504H656.585ZM653.369 314.042L637.459 329.952L637.716 330.208L637.98 330.457L653.369 314.042ZM618.395 316.454L625.787 337.705L625.849 337.683L625.912 337.661L618.395 316.454ZM602.516 314.444L585.231 328.848L585.231 328.848L602.516 314.444ZM601.31 297.761L582.383 285.594L582.383 285.594L601.31 297.761ZM607.139 292.736L596.849 272.727L596.57 272.87L596.296 273.021L607.139 292.736ZM624.827 286.907L620.255 264.876L620.255 264.876L624.827 286.907ZM651.962 358.664L668.52 373.898L668.669 373.736L668.814 373.572L651.962 358.664ZM656.585 342.986H679.085V320.486H656.585V342.986ZM635.078 345.398L643.567 366.235L643.894 366.102L644.216 365.959L635.078 345.398ZM632.465 360.674L616.016 376.026L616.281 376.31L616.555 376.584L632.465 360.674ZM645.731 307.196C657.851 307.196 662.103 310.149 663.444 311.514L695.554 279.988C682.423 266.613 664.163 262.196 645.731 262.196V307.196ZM663.736 311.806C665.202 313.246 668.054 317.405 668.054 328.916H713.054C713.054 310.679 708.536 292.728 695.262 279.696L663.736 311.806ZM668.054 328.916V370.925H713.054V328.916H668.054ZM668.054 370.925C668.054 371.21 668.012 370.689 668.389 369.705C668.797 368.641 669.493 367.572 670.378 366.726L701.484 399.244C709.854 391.238 713.054 380.872 713.054 370.925H668.054ZM670.395 366.709C671.471 365.683 672.598 365.107 673.386 364.84C674.085 364.603 674.22 364.706 673.469 364.706V409.706C682.735 409.706 693.147 407.203 701.467 399.261L670.395 366.709ZM673.469 364.706C673.274 364.706 673.648 364.681 674.372 364.93C675.14 365.195 675.924 365.641 676.575 366.207L647.047 400.165C654.826 406.929 664.208 409.706 673.469 409.706V364.706ZM676.946 366.537C677.767 367.284 678.483 368.262 678.955 369.324C679.403 370.332 679.447 370.996 679.448 371.011L634.526 373.653C635.085 383.155 638.737 392.617 646.676 399.835L676.946 366.537ZM636.017 364.177C635.963 364.316 635.928 364.374 635.928 364.374C635.927 364.376 635.932 364.368 635.943 364.352C635.954 364.337 635.967 364.319 635.984 364.299C636 364.28 636.016 364.263 636.03 364.249C636.043 364.236 636.051 364.229 636.05 364.23C636.05 364.23 636.038 364.24 636.011 364.259C635.985 364.278 635.942 364.308 635.878 364.346L659.202 402.83C667.868 397.578 674.286 389.926 677.957 380.487L636.017 364.177ZM635.878 364.346C635.596 364.517 634.509 365.108 631.661 365.108V410.108C641.141 410.108 650.64 408.019 659.202 402.83L635.878 364.346ZM631.661 365.108C627.839 365.108 625.109 364.378 623.034 363.366L603.304 403.81C612.217 408.158 621.815 410.108 631.661 410.108V365.108ZM623.426 363.562C621.123 362.382 619.772 361.071 618.825 359.65L581.383 384.612C586.868 392.839 594.227 399.166 602.912 403.614L623.426 363.562ZM619.213 360.252C618.473 359.063 617.981 357.659 617.981 355.448H572.981C572.981 365.565 575.571 375.283 580.995 384.01L619.213 360.252ZM617.981 355.448C617.981 353.779 618.196 352.979 618.258 352.786C618.287 352.697 618.281 352.74 618.209 352.871C618.134 353.006 618.022 353.173 617.875 353.342L583.941 323.786C575.824 333.106 572.981 344.523 572.981 355.448H617.981ZM617.841 353.38C617.382 353.905 618.281 352.496 623.709 351.229L613.483 307.407C602.831 309.892 591.938 314.647 583.975 323.748L617.841 353.38ZM623.709 351.229C629.34 349.915 638.247 349.004 651.158 349.004V304.004C636.733 304.004 623.932 304.969 613.483 307.407L623.709 351.229ZM651.158 349.004H656.585V304.004H651.158V349.004ZM679.085 326.504V324.092H634.085V326.504H679.085ZM679.085 324.092C679.085 316.789 677.529 305.85 668.758 297.627L637.98 330.457C635.756 328.371 634.753 326.175 634.351 324.919C633.987 323.779 634.085 323.349 634.085 324.092H679.085ZM669.279 298.132C660.82 289.673 649.754 288.326 642.515 288.326V333.326C643.599 333.326 643.502 333.454 642.656 333.203C641.735 332.93 639.611 332.103 637.459 329.952L669.279 298.132ZM642.515 288.326C632.975 288.326 621.899 291.341 610.878 295.247L625.912 337.661C636.063 334.063 641.067 333.326 642.515 333.326V288.326ZM611.003 295.203C610.612 295.339 610.299 295.436 610.058 295.504C609.816 295.572 609.666 295.606 609.603 295.619C609.538 295.632 609.585 295.62 609.733 295.603C609.88 295.586 610.16 295.562 610.556 295.562V340.562C616.17 340.562 621.436 339.218 625.787 337.705L611.003 295.203ZM610.556 295.562C611.62 295.562 613.324 295.765 615.267 296.639C617.25 297.532 618.773 298.807 619.801 300.04L585.231 328.848C591.833 336.77 601.039 340.562 610.556 340.562V295.562ZM619.801 300.04C620.751 301.18 621.357 302.39 621.69 303.432C622.004 304.418 622.001 305.015 622.001 304.997H577.001C577.001 312.855 579.108 321.501 585.231 328.848L619.801 300.04ZM622.001 304.997C622.001 305.003 622.004 307.179 620.237 309.928L582.383 285.594C578.204 292.095 577.001 299.095 577.001 304.997H622.001ZM620.237 309.928C618.806 312.153 617.422 312.759 617.982 312.451L596.296 273.021C591.496 275.661 586.226 279.617 582.383 285.594L620.237 309.928ZM617.429 312.745C619.78 311.536 623.599 310.141 629.399 308.938L620.255 264.876C611.851 266.621 603.878 269.112 596.849 272.727L617.429 312.745ZM629.399 308.938C635.089 307.757 640.524 307.196 645.731 307.196V262.196C637.27 262.196 628.769 263.109 620.255 264.876L629.399 308.938ZM640.103 386.189C650.797 386.189 660.9 382.181 668.52 373.898L635.404 343.43C635.902 342.889 636.753 342.205 637.907 341.716C639.032 341.24 639.871 341.189 640.103 341.189V386.189ZM668.814 373.572C676.085 365.353 679.085 355.36 679.085 345.398H634.085C634.085 345.916 634.013 345.817 634.182 345.33C634.265 345.093 634.389 344.813 634.561 344.518C634.735 344.222 634.925 343.965 635.11 343.756L668.814 373.572ZM679.085 345.398V342.986H634.085V345.398H679.085ZM656.585 320.486H653.369V365.486H656.585V320.486ZM653.369 320.486C644.474 320.486 634.217 321.159 625.94 324.837L644.216 365.959C643.281 366.374 643.353 366.153 645.306 365.896C647.083 365.661 649.713 365.486 653.369 365.486V320.486ZM626.589 324.561C621.811 326.508 616.6 329.844 612.666 335.381C608.645 341.04 607.151 347.321 607.151 353.036H652.151C652.151 355.133 651.561 358.332 649.349 361.445C647.224 364.436 644.727 365.762 643.567 366.235L626.589 324.561ZM607.151 353.036C607.151 361.072 609.771 369.335 616.016 376.026L648.914 345.322C649.991 346.476 650.887 347.904 651.467 349.479C652.032 351.01 652.151 352.279 652.151 353.036H607.151ZM616.555 376.584C623.161 383.19 631.608 386.189 640.103 386.189V341.189C641.036 341.189 642.475 341.348 644.143 342.007C645.847 342.679 647.287 343.676 648.375 344.764L616.555 376.584ZM776.332 321.68L761.281 338.404L761.483 338.586L761.69 338.763L776.332 321.68ZM776.332 342.383L791.384 359.107L791.406 359.087L791.428 359.068L776.332 342.383ZM726.082 323.501C723.143 323.501 725.132 322.801 728.076 325.284C729.646 326.608 730.75 328.256 731.367 329.816C731.929 331.239 731.899 332.101 731.899 331.931H686.899C686.899 341.189 689.825 351.891 699.064 359.683C707.569 366.856 717.9 368.501 726.082 368.501V323.501ZM731.899 331.931C731.899 331.829 731.919 332.758 731.326 334.237C730.677 335.854 729.536 337.516 727.954 338.831C725.018 341.271 723.082 340.562 726.082 340.562V295.562C717.961 295.562 707.683 297.164 699.186 304.227C689.894 311.952 686.899 322.634 686.899 331.931H731.899ZM726.082 340.562H763.87V295.562H726.082V340.562ZM763.87 340.562C765.162 340.562 765.401 340.71 764.934 340.574C764.396 340.418 762.915 339.875 761.281 338.404L791.384 304.956C782.791 297.222 772.071 295.562 763.87 295.562V340.562ZM761.69 338.763C760.407 337.664 759.346 336.206 758.693 334.619C758.08 333.131 758.053 332.093 758.053 331.931H803.053C803.053 322.336 799.746 312.115 790.975 304.597L761.69 338.763ZM758.053 331.931C758.053 331.757 758.084 330.8 758.635 329.435C759.218 327.991 760.148 326.684 761.237 325.698L791.428 359.068C799.749 351.539 803.053 341.557 803.053 331.931H758.053ZM761.281 325.659C762.915 324.188 764.396 323.645 764.934 323.489C765.401 323.353 765.162 323.501 763.87 323.501V368.501C772.071 368.501 782.791 366.841 791.384 359.107L761.281 325.659ZM763.87 323.501H726.082V368.501H763.87V323.501ZM882.92 266.405L867.659 282.938L867.989 283.242L868.33 283.533L882.92 266.405ZM882.92 241.28L897.828 258.132L897.828 258.132L882.92 241.28ZM911.663 241.28L897.073 258.408L897.073 258.408L911.663 241.28ZM911.663 266.405L926.571 283.257L926.591 283.24L926.612 283.222L911.663 266.405ZM910.055 383.186L924.111 400.756L924.152 400.723L924.193 400.69L910.055 383.186ZM884.528 383.186L870.057 400.414L870.427 400.725L870.81 401.02L884.528 383.186ZM879.503 313.439H902.003V290.939H879.503V313.439ZM844.73 313.439V290.939H822.23V313.439H844.73ZM839.504 382.784L825.367 365.28L825.198 365.416L825.033 365.556L839.504 382.784ZM813.977 382.784L799.506 400.012L799.671 400.152L799.84 400.288L813.977 382.784ZM808.952 313.439H831.452V290.939H808.952V313.439ZM808.952 287.108V309.608H830.505L831.432 288.075L808.952 287.108ZM820.811 257.561L836.575 273.616L836.648 273.544L836.721 273.471L820.811 257.561ZM850.76 244.496L848.522 222.108L848.451 222.115L848.38 222.122L850.76 244.496ZM854.78 244.094L857.019 266.482L857.492 266.435L857.962 266.368L854.78 244.094ZM870.257 265.802L885.678 282.186L885.926 281.953L886.167 281.712L870.257 265.802ZM861.815 269.42L860.021 246.992L859.799 247.009L859.577 247.032L861.815 269.42ZM857.795 269.822L855.557 247.434L855.434 247.446L855.311 247.46L857.795 269.822ZM847.544 274.445L829.885 260.503L829.653 260.797L829.431 261.098L847.544 274.445ZM844.73 287.108H822.23V309.608H844.73V287.108ZM897.392 248.528C896.271 248.528 895.922 248.383 896.099 248.439C896.193 248.469 896.396 248.544 896.667 248.693C896.942 248.843 897.232 249.039 897.511 249.277L868.33 283.533C877.016 290.932 887.49 293.528 897.392 293.528V248.528ZM898.182 249.872C898.746 250.393 899.376 251.217 899.799 252.244C900.202 253.22 900.194 253.832 900.194 253.742H855.194C855.194 264.534 859.061 275.001 867.659 282.938L898.182 249.872ZM900.194 253.742C900.194 253.644 900.205 254.325 899.75 255.408C899.269 256.557 898.537 257.506 897.828 258.132L868.013 224.428C859.074 232.335 855.194 242.957 855.194 253.742H900.194ZM897.828 258.132C897.456 258.462 897.075 258.724 896.725 258.918C896.379 259.111 896.12 259.207 895.998 259.246C895.777 259.316 896.148 259.157 897.392 259.157V214.157C887.552 214.157 876.792 216.661 868.013 224.428L897.828 258.132ZM897.392 259.157C898.396 259.157 898.669 259.289 898.448 259.218C898.335 259.181 898.127 259.102 897.863 258.956C897.596 258.808 897.325 258.623 897.073 258.408L926.254 224.152C917.656 216.828 907.305 214.157 897.392 214.157V259.157ZM897.073 258.408C896.407 257.841 895.634 256.907 895.105 255.691C894.862 255.134 894.728 254.647 894.658 254.284C894.59 253.928 894.59 253.733 894.59 253.742H939.59C939.59 242.664 935.428 231.967 926.254 224.152L897.073 258.408ZM894.59 253.742C894.59 253.75 894.59 253.569 894.653 253.241C894.717 252.907 894.838 252.466 895.053 251.964C895.522 250.87 896.189 250.056 896.715 249.588L926.612 283.222C935.447 275.368 939.59 264.819 939.59 253.742H894.59ZM896.755 249.553C897.101 249.247 897.461 248.997 897.804 248.804C898.142 248.614 898.406 248.513 898.549 248.467C898.816 248.381 898.522 248.528 897.392 248.528V293.528C907.247 293.528 917.876 290.949 926.571 283.257L896.755 249.553ZM899.201 309.608C902.096 309.608 900.092 310.289 897.073 307.837C895.425 306.498 894.185 304.764 893.46 302.997C892.792 301.368 892.781 300.261 892.781 300.173H937.781C937.781 290.972 934.722 280.445 925.45 272.912C917.071 266.104 907.027 264.608 899.201 264.608V309.608ZM892.781 300.173V370.724H937.781V300.173H892.781ZM892.781 370.724C892.781 371.122 892.717 370.471 893.226 369.259C893.787 367.92 894.743 366.631 895.918 365.682L924.193 400.69C934.159 392.641 937.781 381.318 937.781 370.724H892.781ZM896 365.616C896.255 365.412 896.536 365.227 896.828 365.072C897.119 364.918 897.375 364.817 897.569 364.756C897.962 364.631 897.968 364.706 897.392 364.706V409.706C906.6 409.706 916.059 407.197 924.111 400.756L896 365.616ZM897.392 364.706C896.824 364.706 896.772 364.633 897.069 364.725C897.213 364.77 897.407 364.845 897.629 364.96C897.852 365.075 898.062 365.21 898.247 365.352L870.81 401.02C878.831 407.19 888.158 409.706 897.392 409.706V364.706ZM899 365.958C900.216 366.979 901.121 368.29 901.627 369.546C902.082 370.674 902.003 371.222 902.003 370.724H857.003C857.003 381.02 860.356 392.266 870.057 400.414L899 365.958ZM902.003 370.724V313.439H857.003V370.724H902.003ZM879.503 290.939H844.73V335.939H879.503V290.939ZM822.23 313.439V370.322H867.23V313.439H822.23ZM822.23 370.322C822.23 370.72 822.166 370.069 822.675 368.857C823.236 367.518 824.192 366.229 825.367 365.28L853.642 400.288C863.608 392.239 867.23 380.916 867.23 370.322H822.23ZM825.033 365.556C825.566 365.108 826.179 364.782 826.711 364.604C827.199 364.442 827.312 364.505 826.841 364.505V409.505C836.314 409.505 845.924 406.776 853.976 400.012L825.033 365.556ZM826.841 364.505C826.377 364.505 826.431 364.443 826.821 364.571C827.01 364.633 827.236 364.727 827.48 364.859C827.723 364.991 827.938 365.137 828.115 365.28L799.84 400.288C807.869 406.773 817.348 409.505 826.841 409.505V364.505ZM828.449 365.556C829.665 366.577 830.57 367.888 831.076 369.144C831.531 370.272 831.452 370.82 831.452 370.322H786.452C786.452 380.618 789.805 391.864 799.506 400.012L828.449 365.556ZM831.452 370.322V313.439H786.452V370.322H831.452ZM808.952 290.939H803.123V335.939H808.952V290.939ZM803.123 290.939C800.292 290.939 802.352 290.266 805.382 292.767C807.02 294.118 808.219 295.839 808.91 297.548C809.545 299.119 809.543 300.156 809.543 300.173H764.543C764.543 309.326 767.526 319.872 776.745 327.478C785.135 334.401 795.235 335.939 803.123 335.939V290.939ZM809.543 300.173C809.543 300.261 809.533 301.368 808.865 302.997C808.14 304.764 806.9 306.498 805.252 307.837C802.233 310.289 800.229 309.608 803.123 309.608V264.608C795.298 264.608 785.254 266.104 776.875 272.912C767.603 280.445 764.543 290.972 764.543 300.173H809.543ZM803.123 309.608H808.952V264.608H803.123V309.608ZM831.432 288.075C831.776 280.06 834.088 276.057 836.575 273.616L805.048 241.506C792.794 253.537 787.201 269.232 786.473 286.141L831.432 288.075ZM836.721 273.471C839.718 270.474 844.522 267.787 853.141 266.87L848.38 222.122C831.807 223.885 816.645 229.908 804.902 241.651L836.721 273.471ZM852.999 266.884L857.019 266.482L852.542 221.706L848.522 222.108L852.999 266.884ZM857.962 266.368C857.725 266.402 857.576 266.416 857.537 266.419C857.494 266.423 857.515 266.42 857.613 266.415C857.817 266.405 858.2 266.393 858.8 266.393V221.393C856.718 221.393 854.123 221.459 851.598 221.82L857.962 266.368ZM858.8 266.393C861.165 266.393 858.748 266.971 855.506 264.255C853.779 262.809 852.545 260.996 851.839 259.22C851.187 257.582 851.174 256.469 851.174 256.355H896.174C896.174 247.585 893.368 237.271 884.406 229.762C876.206 222.892 866.352 221.393 858.8 221.393V266.393ZM851.174 256.355C851.174 256.264 851.186 255.395 851.662 254.079C852.169 252.675 853.06 251.18 854.348 249.892L886.167 281.712C893.655 274.225 896.174 264.779 896.174 256.355H851.174ZM854.837 249.418C855.573 248.725 856.509 248.091 857.575 247.634C858.622 247.185 859.497 247.034 860.021 246.992L863.61 291.848C871.651 291.205 879.391 288.104 885.678 282.186L854.837 249.418ZM859.577 247.032L855.557 247.434L860.034 292.21L864.054 291.808L859.577 247.032ZM855.311 247.46C847.448 248.333 837.126 251.33 829.885 260.503L865.204 288.387C863.648 290.358 861.932 291.409 860.865 291.89C859.904 292.324 859.555 292.265 860.28 292.184L855.311 247.46ZM829.431 261.098C823.847 268.676 822.23 277.289 822.23 284.696H867.23C867.23 283.527 867.49 285.306 865.658 287.792L829.431 261.098ZM822.23 284.696V287.108H867.23V284.696H822.23ZM844.73 309.608H899.201V264.608H844.73V309.608ZM941.166 383.186L926.695 400.414L927.065 400.725L927.448 401.02L941.166 383.186ZM941.166 247.511L927.029 230.007L926.86 230.143L926.695 230.283L941.166 247.511ZM966.693 247.511L952.222 264.739L952.387 264.879L952.556 265.015L966.693 247.511ZM966.693 383.186L980.749 400.756L980.79 400.723L980.831 400.69L966.693 383.186ZM954.03 364.706C953.462 364.706 953.41 364.633 953.707 364.725C953.851 364.77 954.045 364.845 954.267 364.96C954.49 365.075 954.7 365.21 954.885 365.352L927.448 401.02C935.469 407.19 944.796 409.706 954.03 409.706V364.706ZM955.638 365.958C956.854 366.979 957.759 368.29 958.265 369.546C958.72 370.674 958.641 371.222 958.641 370.724H913.641C913.641 381.02 916.994 392.266 926.695 400.414L955.638 365.958ZM958.641 370.724V259.973H913.641V370.724H958.641ZM958.641 259.973C958.641 259.475 958.72 260.023 958.265 261.151C957.759 262.407 956.854 263.718 955.638 264.739L926.695 230.283C916.994 238.431 913.641 249.677 913.641 259.973H958.641ZM955.304 265.015C955.127 265.158 954.912 265.304 954.669 265.436C954.426 265.568 954.199 265.662 954.01 265.724C953.62 265.852 953.566 265.79 954.03 265.79V220.79C944.537 220.79 935.058 223.522 927.029 230.007L955.304 265.015ZM954.03 265.79C954.501 265.79 954.388 265.853 953.9 265.691C953.368 265.513 952.755 265.187 952.222 264.739L981.165 230.283C973.113 223.519 963.503 220.79 954.03 220.79V265.79ZM952.556 265.015C951.382 264.066 950.425 262.777 949.864 261.438C949.355 260.226 949.419 259.575 949.419 259.973H994.419C994.419 249.379 990.797 238.056 980.831 230.007L952.556 265.015ZM949.419 259.973V370.724H994.419V259.973H949.419ZM949.419 370.724C949.419 371.122 949.355 370.471 949.864 369.259C950.425 367.92 951.382 366.631 952.556 365.682L980.831 400.69C990.797 392.641 994.419 381.318 994.419 370.724H949.419ZM952.638 365.616C952.893 365.412 953.174 365.227 953.466 365.072C953.757 364.918 954.013 364.817 954.207 364.756C954.6 364.631 954.606 364.706 954.03 364.706V409.706C963.238 409.706 972.697 407.197 980.749 400.756L952.638 365.616ZM1144.03 294.545L1127.28 309.578L1127.36 309.664L1127.44 309.749L1144.03 294.545ZM1147.64 383.186L1161.7 400.756L1161.74 400.723L1161.78 400.69L1147.64 383.186ZM1122.12 383.186L1107.64 400.414L1108.02 400.725L1108.4 401.02L1122.12 383.186ZM1094.78 317.057L1077.55 302.585L1077.55 302.585L1094.78 317.057ZM1085.53 383.186L1099.59 400.756L1099.8 400.587L1100.01 400.414L1085.53 383.186ZM1059.81 383.186L1045.33 400.414L1045.71 400.725L1046.09 401.02L1059.81 383.186ZM1051.97 315.248L1035.03 330.064L1035.03 330.064L1051.97 315.248ZM1032.47 317.057L1015.24 302.585L1015.07 302.791L1014.9 303.001L1032.47 317.057ZM1023.22 383.186L1037.28 400.756L1037.32 400.723L1037.36 400.69L1023.22 383.186ZM997.698 383.186L983.226 400.414L983.596 400.725L983.979 401.02L997.698 383.186ZM997.899 289.319L1011.62 307.153L1011.66 307.116L1011.71 307.079L997.899 289.319ZM1022.42 288.917L1008.09 306.264L1008.5 306.6L1008.92 306.917L1022.42 288.917ZM1027.45 299.57L1004.95 300.213L1006.98 371.225L1046.21 311.992L1027.45 299.57ZM1086.34 302.183L1065.55 310.786L1082.26 351.166L1105.42 314.108L1086.34 302.183ZM1099.81 289.52L1110.61 309.255L1110.79 309.157L1110.97 309.055L1099.81 289.52ZM1118.9 307.196C1124.95 307.196 1126.61 308.829 1127.28 309.578L1160.77 279.512C1149.65 267.129 1134.55 262.196 1118.9 262.196V307.196ZM1127.44 309.749C1127.34 309.638 1128.13 310.445 1128.94 313.423C1129.75 316.424 1130.37 320.921 1130.37 327.308H1175.37C1175.37 310.193 1172.32 292.114 1160.61 279.341L1127.44 309.749ZM1130.37 327.308V370.724H1175.37V327.308H1130.37ZM1130.37 370.724C1130.37 371.122 1130.31 370.471 1130.81 369.259C1131.38 367.92 1132.33 366.631 1133.51 365.682L1161.78 400.69C1171.75 392.641 1175.37 381.318 1175.37 370.724H1130.37ZM1133.59 365.616C1133.84 365.412 1134.12 365.227 1134.42 365.072C1134.71 364.918 1134.96 364.817 1135.16 364.756C1135.55 364.631 1135.56 364.706 1134.98 364.706V409.706C1144.19 409.706 1153.65 407.197 1161.7 400.756L1133.59 365.616ZM1134.98 364.706C1134.41 364.706 1134.36 364.633 1134.66 364.725C1134.8 364.77 1135 364.845 1135.22 364.96C1135.44 365.075 1135.65 365.21 1135.84 365.352L1108.4 401.02C1116.42 407.19 1125.75 409.706 1134.98 409.706V364.706ZM1136.59 365.958C1137.8 366.979 1138.71 368.29 1139.22 369.546C1139.67 370.674 1139.59 371.222 1139.59 370.724H1094.59C1094.59 381.02 1097.94 392.266 1107.64 400.414L1136.59 365.958ZM1139.59 370.724V326.504H1094.59V370.724H1139.59ZM1139.59 326.504C1139.59 319.911 1138.72 309.011 1131.21 300.432L1097.34 330.064C1095.24 327.664 1094.66 325.536 1094.56 325.127C1094.45 324.682 1094.59 325.013 1094.59 326.504H1139.59ZM1131.21 300.432C1123.96 292.148 1114.26 289.532 1106.04 289.532V334.532C1105.66 334.532 1104.38 334.48 1102.63 333.796C1100.76 333.065 1098.87 331.811 1097.34 330.064L1131.21 300.432ZM1106.04 289.532C1095.25 289.532 1084.98 293.743 1077.55 302.585L1112.01 331.529C1111.37 332.289 1110.31 333.194 1108.88 333.834C1107.49 334.455 1106.41 334.532 1106.04 334.532V289.532ZM1077.55 302.585C1070.31 311.208 1068.06 321.583 1068.06 330.926H1113.06C1113.06 329.728 1113.21 329.369 1113.14 329.588C1113.1 329.71 1113.01 329.976 1112.82 330.336C1112.63 330.7 1112.36 331.112 1112.01 331.529L1077.55 302.585ZM1068.06 330.926V370.724H1113.06V330.926H1068.06ZM1068.06 370.724C1068.06 371.222 1067.98 370.674 1068.44 369.546C1068.94 368.29 1069.85 366.979 1071.06 365.958L1100.01 400.414C1109.71 392.266 1113.06 381.02 1113.06 370.724H1068.06ZM1071.48 365.616C1071.76 365.389 1072.07 365.193 1072.37 365.034C1072.67 364.876 1072.92 364.78 1073.1 364.725C1073.44 364.616 1073.37 364.706 1072.67 364.706V409.706C1081.86 409.706 1091.44 407.278 1099.59 400.756L1071.48 365.616ZM1072.67 364.706C1072.1 364.706 1072.05 364.633 1072.35 364.725C1072.49 364.77 1072.69 364.845 1072.91 364.96C1073.13 365.075 1073.34 365.21 1073.53 365.352L1046.09 401.02C1054.11 407.19 1063.44 409.706 1072.67 409.706V364.706ZM1074.28 365.958C1075.49 366.979 1076.4 368.29 1076.91 369.546C1077.36 370.674 1077.28 371.222 1077.28 370.724H1032.28C1032.28 381.02 1035.63 392.266 1045.33 400.414L1074.28 365.958ZM1077.28 370.724V326.504H1032.28V370.724H1077.28ZM1077.28 326.504C1077.28 319.911 1076.41 309.011 1068.9 300.432L1035.03 330.064C1032.93 327.664 1032.35 325.536 1032.25 325.127C1032.14 324.682 1032.28 325.013 1032.28 326.504H1077.28ZM1068.9 300.432C1061.65 292.148 1051.95 289.532 1043.73 289.532V334.532C1043.35 334.532 1042.07 334.48 1040.32 333.796C1038.45 333.065 1036.56 331.811 1035.03 330.064L1068.9 300.432ZM1043.73 289.532C1032.94 289.532 1022.67 293.743 1015.24 302.585L1049.7 331.529C1049.06 332.289 1048 333.194 1046.57 333.834C1045.18 334.455 1044.1 334.532 1043.73 334.532V289.532ZM1014.9 303.001C1008.02 311.604 1005.95 321.815 1005.95 330.926H1050.95C1050.95 329.64 1051.1 329.18 1051.07 329.301C1051.04 329.375 1050.97 329.604 1050.8 329.938C1050.63 330.277 1050.38 330.684 1050.04 331.113L1014.9 303.001ZM1005.95 330.926V370.724H1050.95V330.926H1005.95ZM1005.95 370.724C1005.95 371.122 1005.89 370.471 1006.39 369.259C1006.96 367.92 1007.91 366.631 1009.09 365.682L1037.36 400.69C1047.33 392.641 1050.95 381.318 1050.95 370.724H1005.95ZM1009.17 365.616C1009.42 365.412 1009.71 365.227 1010 365.072C1010.29 364.918 1010.54 364.817 1010.74 364.756C1011.13 364.631 1011.14 364.706 1010.56 364.706V409.706C1019.77 409.706 1029.23 407.197 1037.28 400.756L1009.17 365.616ZM1010.56 364.706C1009.99 364.706 1009.94 364.633 1010.24 364.725C1010.38 364.77 1010.58 364.845 1010.8 364.96C1011.02 365.075 1011.23 365.21 1011.42 365.352L983.979 401.02C992 407.19 1001.33 409.706 1010.56 409.706V364.706ZM1012.17 365.958C1013.38 366.979 1014.29 368.29 1014.8 369.546C1015.25 370.674 1015.17 371.222 1015.17 370.724H970.173C970.173 381.02 973.525 392.266 983.226 400.414L1012.17 365.958ZM1015.17 370.724V301.178H970.173V370.724H1015.17ZM1015.17 301.178C1015.17 301.047 1015.19 301.95 1014.57 303.367C1013.89 304.903 1012.81 306.237 1011.62 307.153L984.18 271.485C974.082 279.253 970.173 290.448 970.173 301.178H1015.17ZM1011.71 307.079C1011.63 307.144 1011.5 307.231 1011.33 307.321C1011.17 307.41 1011 307.481 1010.84 307.532C1010.51 307.641 1010.43 307.598 1010.76 307.598V262.598C1001.24 262.598 991.983 265.416 984.085 271.559L1011.71 307.079ZM1010.76 307.598C1011.07 307.598 1010.81 307.639 1010.19 307.435C1009.52 307.216 1008.77 306.823 1008.09 306.264L1036.75 271.57C1028.96 265.135 1019.73 262.598 1010.76 262.598V307.598ZM1008.92 306.917C1007.67 305.977 1006.5 304.611 1005.74 302.988C1005.02 301.466 1004.96 300.374 1004.95 300.213L1049.94 298.927C1049.64 288.669 1045.57 278.157 1035.92 270.917L1008.92 306.917ZM1046.21 311.992C1047.97 309.322 1050.39 307.196 1057.6 307.196V262.196C1037.73 262.196 1020.05 269.986 1008.69 287.148L1046.21 311.992ZM1057.6 307.196C1061.77 307.196 1063.43 308.04 1063.84 308.29C1064.05 308.414 1064.72 308.796 1065.55 310.786L1107.13 293.58C1103.13 283.912 1096.61 275.55 1087.23 269.846C1078.06 264.267 1067.76 262.196 1057.6 262.196V307.196ZM1105.42 314.108C1106.69 312.068 1108.31 310.515 1110.61 309.255L1089 269.785C1080.04 274.689 1072.68 281.578 1067.26 290.258L1105.42 314.108ZM1110.97 309.055C1112.88 307.965 1115.33 307.196 1118.9 307.196V262.196C1108.27 262.196 1097.99 264.643 1088.64 269.985L1110.97 309.055Z" fill="white"/>
</g>
<g filter="url(#filter1_d)">
<path d="M223.925 271.028C217.895 271.028 213.071 269.487 209.453 266.405C205.969 263.189 204.227 258.968 204.227 253.742C204.227 248.516 205.969 244.362 209.453 241.28C212.937 238.198 217.761 236.657 223.925 236.657C229.821 236.657 234.578 238.198 238.196 241.28C241.814 244.362 243.623 248.516 243.623 253.742C243.623 258.968 241.814 263.189 238.196 266.405C234.712 269.487 229.955 271.028 223.925 271.028ZM225.734 287.108C236.454 287.108 241.814 291.463 241.814 300.173V370.724C241.814 376.218 240.072 380.372 236.588 383.186C233.238 385.866 229.017 387.206 223.925 387.206C218.833 387.206 214.545 385.866 211.061 383.186C207.711 380.372 206.036 376.218 206.036 370.724V313.439H171.263V370.322C171.263 375.816 169.521 379.97 166.037 382.784C162.687 385.598 158.466 387.005 153.374 387.005C148.282 387.005 143.994 385.598 140.51 382.784C137.16 379.97 135.485 375.816 135.485 370.322V313.439H129.656C118.936 313.439 113.576 309.017 113.576 300.173C113.576 291.463 118.936 287.108 129.656 287.108H135.485C136.021 274.646 139.974 264.797 147.344 257.561C154.714 250.191 164.697 245.836 177.293 244.496L181.313 244.094C182.251 243.96 183.591 243.893 185.333 243.893C195.249 243.893 200.207 248.047 200.207 256.355C200.207 260.375 199.068 263.524 196.79 265.802C194.512 267.946 191.698 269.152 188.348 269.42L184.328 269.822C179.504 270.358 176.087 271.899 174.077 274.445C172.201 276.991 171.263 280.408 171.263 284.696V287.108H225.734Z" fill="#FE7C7C"/>
<path d="M329.205 284.696C340.997 284.696 349.774 288.247 355.536 295.349C361.298 302.317 364.179 312.97 364.179 327.308V370.724C364.179 375.816 362.571 379.836 359.355 382.784C356.139 385.732 351.784 387.206 346.29 387.206C340.796 387.206 336.441 385.732 333.225 382.784C330.009 379.836 328.401 375.816 328.401 370.724V328.916C328.401 323.02 327.329 318.732 325.185 316.052C323.175 313.372 320.093 312.032 315.939 312.032C310.579 312.032 306.291 313.774 303.075 317.258C299.993 320.608 298.452 325.164 298.452 330.926V370.724C298.452 375.816 296.844 379.836 293.628 382.784C290.412 385.732 286.057 387.206 280.563 387.206C275.069 387.206 270.714 385.732 267.498 382.784C264.282 379.836 262.674 375.816 262.674 370.724V301.178C262.674 296.488 264.349 292.669 267.699 289.721C271.049 286.639 275.404 285.098 280.764 285.098C285.856 285.098 289.876 286.505 292.824 289.319C295.906 292.133 297.447 295.818 297.447 300.374C300.931 295.282 305.42 291.396 310.914 288.716C316.408 286.036 322.505 284.696 329.205 284.696Z" fill="#FEC27C"/>
<path d="M470.803 243.29C476.163 243.29 480.518 244.831 483.868 247.913C487.352 250.861 489.094 254.68 489.094 259.37V370.724C489.094 375.816 487.486 379.836 484.27 382.784C481.054 385.732 476.766 387.206 471.406 387.206C466.448 387.206 462.361 385.933 459.145 383.387C456.063 380.707 454.321 377.089 453.919 372.533C451.105 377.223 446.951 380.908 441.457 383.588C436.097 386.268 430.134 387.608 423.568 387.608C415.126 387.608 407.555 385.464 400.855 381.176C394.289 376.754 389.13 370.59 385.378 362.684C381.626 354.778 379.75 345.733 379.75 335.549C379.75 325.365 381.559 316.454 385.177 308.816C388.929 301.044 394.088 295.081 400.654 290.927C407.354 286.773 414.992 284.696 423.568 284.696C429.866 284.696 435.628 285.969 440.854 288.515C446.214 291.061 450.368 294.478 453.316 298.766V258.767C453.316 254.077 454.857 250.325 457.939 247.511C461.155 244.697 465.443 243.29 470.803 243.29ZM434.422 360.875C440.72 360.875 445.544 358.731 448.894 354.443C452.244 350.155 453.919 343.991 453.919 335.951C453.919 328.045 452.244 322.015 448.894 317.861C445.544 313.573 440.72 311.429 434.422 311.429C428.258 311.429 423.501 313.506 420.151 317.66C416.801 321.814 415.126 327.777 415.126 335.549C415.126 343.589 416.801 349.82 420.151 354.242C423.635 358.664 428.392 360.875 434.422 360.875Z" fill="#FEF17C"/>
<path d="M525.475 346.001C514.353 346.001 508.792 341.311 508.792 331.931C508.792 322.685 514.353 318.062 525.475 318.062H563.263C568.891 318.062 573.045 319.268 575.725 321.68C578.539 324.092 579.946 327.509 579.946 331.931C579.946 336.353 578.539 339.837 575.725 342.383C573.045 344.795 568.891 346.001 563.263 346.001H525.475Z" fill="#C5FE7C"/>
<path d="M645.731 284.696C661.007 284.696 672.263 288.381 679.499 295.751C686.869 302.987 690.554 314.042 690.554 328.916V370.925C690.554 376.017 689.013 380.037 685.931 382.985C682.983 385.799 678.829 387.206 673.469 387.206C668.779 387.206 664.893 385.866 661.811 383.186C658.863 380.506 657.255 376.888 656.987 372.332C655.111 377.156 651.962 380.908 647.54 383.588C643.118 386.268 637.825 387.608 631.661 387.608C624.827 387.608 618.663 386.268 613.169 383.588C607.675 380.774 603.32 376.955 600.104 372.131C597.022 367.173 595.481 361.612 595.481 355.448C595.481 348.346 597.29 342.718 600.908 338.564C604.66 334.276 610.556 331.194 618.596 329.318C626.636 327.442 637.49 326.504 651.158 326.504H656.585V324.092C656.585 319.402 655.513 316.052 653.369 314.042C651.225 311.898 647.607 310.826 642.515 310.826C637.021 310.826 628.981 312.702 618.395 316.454C615.313 317.526 612.7 318.062 610.556 318.062C607.206 318.062 604.526 316.856 602.516 314.444C600.506 312.032 599.501 308.883 599.501 304.997C599.501 302.049 600.104 299.637 601.31 297.761C602.516 295.885 604.459 294.21 607.139 292.736C611.829 290.324 617.725 288.381 624.827 286.907C631.929 285.433 638.897 284.696 645.731 284.696ZM640.103 363.689C644.927 363.689 648.88 362.014 651.962 358.664C655.044 355.18 656.585 350.758 656.585 345.398V342.986H653.369C644.793 342.986 638.696 343.79 635.078 345.398C631.46 346.872 629.651 349.418 629.651 353.036C629.651 356.118 630.589 358.664 632.465 360.674C634.475 362.684 637.021 363.689 640.103 363.689Z" fill="#7CFEDF"/>
<path d="M726.082 346.001C714.96 346.001 709.399 341.311 709.399 331.931C709.399 322.685 714.96 318.062 726.082 318.062H763.87C769.498 318.062 773.652 319.268 776.332 321.68C779.146 324.092 780.553 327.509 780.553 331.931C780.553 336.353 779.146 339.837 776.332 342.383C773.652 344.795 769.498 346.001 763.87 346.001H726.082Z" fill="#7CCFFE"/>
<path d="M897.392 271.028C891.362 271.028 886.538 269.487 882.92 266.405C879.436 263.189 877.694 258.968 877.694 253.742C877.694 248.516 879.436 244.362 882.92 241.28C886.404 238.198 891.228 236.657 897.392 236.657C903.288 236.657 908.045 238.198 911.663 241.28C915.281 244.362 917.09 248.516 917.09 253.742C917.09 258.968 915.281 263.189 911.663 266.405C908.179 269.487 903.422 271.028 897.392 271.028ZM899.201 287.108C909.921 287.108 915.281 291.463 915.281 300.173V370.724C915.281 376.218 913.539 380.372 910.055 383.186C906.705 385.866 902.484 387.206 897.392 387.206C892.3 387.206 888.012 385.866 884.528 383.186C881.178 380.372 879.503 376.218 879.503 370.724V313.439H844.73V370.322C844.73 375.816 842.988 379.97 839.504 382.784C836.154 385.598 831.933 387.005 826.841 387.005C821.749 387.005 817.461 385.598 813.977 382.784C810.627 379.97 808.952 375.816 808.952 370.322V313.439H803.123C792.403 313.439 787.043 309.017 787.043 300.173C787.043 291.463 792.403 287.108 803.123 287.108H808.952C809.488 274.646 813.441 264.797 820.811 257.561C828.181 250.191 838.164 245.836 850.76 244.496L854.78 244.094C855.718 243.96 857.058 243.893 858.8 243.893C868.716 243.893 873.674 248.047 873.674 256.355C873.674 260.375 872.535 263.524 870.257 265.802C867.979 267.946 865.165 269.152 861.815 269.42L857.795 269.822C852.971 270.358 849.554 271.899 847.544 274.445C845.668 276.991 844.73 280.408 844.73 284.696V287.108H899.201Z" fill="#7C98FE"/>
<path d="M954.03 387.206C948.938 387.206 944.65 385.866 941.166 383.186C937.816 380.372 936.141 376.218 936.141 370.724V259.973C936.141 254.479 937.816 250.325 941.166 247.511C944.65 244.697 948.938 243.29 954.03 243.29C959.122 243.29 963.343 244.697 966.693 247.511C970.177 250.325 971.919 254.479 971.919 259.973V370.724C971.919 376.218 970.177 380.372 966.693 383.186C963.343 385.866 959.122 387.206 954.03 387.206Z" fill="#A57CFE"/>
<path d="M1118.9 284.696C1129.75 284.696 1138.13 287.979 1144.03 294.545C1149.92 300.977 1152.87 311.898 1152.87 327.308V370.724C1152.87 376.218 1151.13 380.372 1147.64 383.186C1144.29 385.866 1140.07 387.206 1134.98 387.206C1129.89 387.206 1125.6 385.866 1122.12 383.186C1118.77 380.372 1117.09 376.218 1117.09 370.724V326.504C1117.09 321.144 1116.15 317.392 1114.28 315.248C1112.4 313.104 1109.65 312.032 1106.04 312.032C1101.35 312.032 1097.59 313.707 1094.78 317.057C1091.97 320.407 1090.56 325.03 1090.56 330.926V370.724C1090.56 376.218 1088.88 380.372 1085.53 383.186C1082.18 385.866 1077.9 387.206 1072.67 387.206C1067.58 387.206 1063.29 385.866 1059.81 383.186C1056.46 380.372 1054.78 376.218 1054.78 370.724V326.504C1054.78 321.144 1053.84 317.392 1051.97 315.248C1050.09 313.104 1047.34 312.032 1043.73 312.032C1039.04 312.032 1035.28 313.707 1032.47 317.057C1029.79 320.407 1028.45 325.03 1028.45 330.926V370.724C1028.45 376.218 1026.71 380.372 1023.22 383.186C1019.87 385.866 1015.65 387.206 1010.56 387.206C1005.47 387.206 1001.18 385.866 997.698 383.186C994.348 380.372 992.673 376.218 992.673 370.724V301.178C992.673 295.952 994.415 291.999 997.899 289.319C1001.52 286.505 1005.8 285.098 1010.76 285.098C1015.45 285.098 1019.34 286.371 1022.42 288.917C1025.64 291.329 1027.31 294.88 1027.45 299.57C1034.01 289.654 1044.06 284.696 1057.6 284.696C1071.93 284.696 1081.51 290.525 1086.34 302.183C1089.69 296.823 1094.18 292.602 1099.81 289.52C1105.43 286.304 1111.8 284.696 1118.9 284.696Z" fill="#FE7CF1"/>
</g>
<defs>
<filter id="filter0_d" x="88.0757" y="213.157" width="1094.29" height="205.951" filterUnits="userSpaceOnUse" color-interpolation-filters="sRGB">
<feFlood flood-opacity="0" result="BackgroundImageFix"/>
<feColorMatrix in="SourceAlpha" type="matrix" values="0 0 0 0 0 0 0 0 0 0 0 0 0 0 0 0 0 0 127 0" result="hardAlpha"/>
<feOffset dx="2" dy="4"/>
<feGaussianBlur stdDeviation="2.5"/>
<feComposite in2="hardAlpha" operator="out"/>
<feColorMatrix type="matrix" values="0 0 0 0 0 0 0 0 0 0 0 0 0 0 0 0 0 0 0.5 0"/>
<feBlend mode="normal" in2="BackgroundImageFix" result="effect1_dropShadow"/>
<feBlend mode="normal" in="SourceGraphic" in2="effect1_dropShadow" result="shape"/>
</filter>
<filter id="filter1_d" x="110.576" y="235.657" width="1049.29" height="160.951" filterUnits="userSpaceOnUse" color-interpolation-filters="sRGB">
<feFlood flood-opacity="0" result="BackgroundImageFix"/>
<feColorMatrix in="SourceAlpha" type="matrix" values="0 0 0 0 0 0 0 0 0 0 0 0 0 0 0 0 0 0 127 0" result="hardAlpha"/>
<feOffset dx="2" dy="4"/>
<feGaussianBlur stdDeviation="2.5"/>
<feComposite in2="hardAlpha" operator="out"/>
<feColorMatrix type="matrix" values="0 0 0 0 0 0 0 0 0 0 0 0 0 0 0 0 0 0 0.7 0"/>
<feBlend mode="normal" in2="BackgroundImageFix" result="effect1_dropShadow"/>
<feBlend mode="normal" in="SourceGraphic" in2="effect1_dropShadow" result="shape"/>
</filter>
<linearGradient id="paint0_linear" x1="742" y1="525.012" x2="860" y2="525.012" gradientUnits="userSpaceOnUse">
<stop stop-color="#90CEA1"/>
<stop offset="0.56" stop-color="#3CBEC9"/>
<stop offset="1" stop-color="#00B3E5"/>
</linearGradient>
<linearGradient id="paint1_linear" x1="423" y1="545" x2="720" y2="545" gradientUnits="userSpaceOnUse">
<stop stop-color="#8BCDA4"/>
<stop offset="1" stop-color="#07B4E2"/>
</linearGradient>
</defs>
</svg>
